<?xml version="1.0" encoding="utf-8"?>
<!-- Generator: Adobe Illustrator 18.0.0, SVG Export Plug-In . SVG Version: 6.00 Build 0)  -->
<!DOCTYPE svg PUBLIC "-//W3C//DTD SVG 1.1//EN" "http://www.w3.org/Graphics/SVG/1.1/DTD/svg11.dtd" [
	<!ENTITY ns_flows "http://ns.adobe.com/Flows/1.0/">
	<!ENTITY ns_extend "http://ns.adobe.com/Extensibility/1.0/">
	<!ENTITY ns_ai "http://ns.adobe.com/AdobeIllustrator/10.0/">
	<!ENTITY ns_graphs "http://ns.adobe.com/Graphs/1.0/">
]>
<svg version="1.1" xmlns:x="&ns_extend;" xmlns:i="&ns_ai;" xmlns:graph="&ns_graphs;"
	 xmlns="http://www.w3.org/2000/svg" xmlns:xlink="http://www.w3.org/1999/xlink" xmlns:a="http://ns.adobe.com/AdobeSVGViewerExtensions/3.0/"
	 x="0px" y="0px" viewBox="0 0 277.1 277.1" enable-background="new 0 0 277.1 277.1" xml:space="preserve">
<g id="LOGO_IAC">
	<path id="CIRC_BLANCO_EXT" fill-rule="evenodd" clip-rule="evenodd" fill="#FFFFFF" stroke="#08255A" stroke-width="0.25" d="
		M138.6,274C63.9,274,3.1,213.2,3.1,138.6C3.1,63.9,63.9,3,138.6,3c74.6,0,135.5,60.9,135.5,135.5C274.1,213.2,213.2,274,138.6,274"
		/>
	<path id="CIRC_AZUL_OSCURO" fill-rule="evenodd" clip-rule="evenodd" fill="#08255A" d="M236.6,138.7c0-54.1-43.9-98.1-97.9-98.2v0
		c0,0,0,0-0.1,0c0,0,0,0-0.1,0v0c-54.1,0.1-97.9,44-97.9,98.2c0,53.9,43.9,97.8,97.9,97.8v0c0,0,0,0,0.1,0c0,0,0,0,0.1,0v0
		C192.7,236.5,236.6,192.6,236.6,138.7"/>
	<path id="SEMICIRC_AZUL_CELESTE" fill-rule="evenodd" clip-rule="evenodd" fill="#4C9FDC" d="M138.3,138.7v95.6
		c-52.5,0-95.5-43.2-95.5-95.6c0-52.7,43-95.6,95.5-95.6V138.7z"/>
	<path id="RAYOS" fill-rule="evenodd" clip-rule="evenodd" fill="#F4D04E" d="M49.9,158.2l1.6-0.7c0.5-0.2,0.8,0.6,0.4,0.8l-1.5,0.7
		C49.7,159.2,49.4,158.4,49.9,158.2 M55.2,129.1l-0.8-0.2c-0.6-0.1-0.7,0.7-0.2,0.8l0.8,0.2C55.5,130.1,55.7,129.2,55.2,129.1
		 M56.7,142l-1.7,0.1c-0.6,0.1-0.4,0.9,0.1,0.9l1.7-0.1C57.4,142.8,57.2,141.9,56.7,142 M53.6,128.7l-4.1-1.1
		c-0.6-0.1-0.7,0.7-0.2,0.8l4.1,1.1C53.9,129.6,54.1,128.8,53.6,128.7 M60.3,183.8l2.5-3.5c0.3-0.5-0.4-1-0.7-0.5l-2.5,3.5
		C59.3,183.8,59.9,184.3,60.3,183.8 M63.6,136.2l-6.8-0.6c-0.5-0.1-0.7,0.8-0.1,0.9l6.8,0.6C64,137.1,64.2,136.3,63.6,136.2
		 M57.9,172.7l2.5-2.5c0.4-0.4-0.2-1-0.6-0.6l-2.5,2.5C56.9,172.5,57.5,173.1,57.9,172.7 M53.3,142.3l-0.9,0.1
		c-0.6,0.1-0.4,0.9,0.1,0.9l0.9-0.1C54,143.1,53.8,142.2,53.3,142.3 M53.7,112.5c-0.5-0.3-1,0.4-0.5,0.7l3.3,2.3
		c0.5,0.3,1-0.4,0.5-0.7L53.7,112.5z M56.1,148.3l-4.1,1.1c-0.5,0.1-0.3,1,0.2,0.8l4.1-1.1C56.9,149,56.7,148.1,56.1,148.3
		 M56.9,129.5c-0.6-0.1-0.7,0.7-0.2,0.8l1.7,0.4c0.6,0.1,0.7-0.7,0.2-0.8L56.9,129.5z M56.1,155.3l-3.1,1.4c-0.5,0.2-0.2,1,0.4,0.8
		l3.1-1.4C56.9,155.9,56.6,155.1,56.1,155.3 M55.1,135.5l-4.3-0.4c-0.5-0.1-0.7,0.8-0.1,0.9l4.3,0.4
		C55.5,136.4,55.7,135.5,55.1,135.5 M63.4,167.3l1.2-1.2c0.4-0.4-0.2-1-0.6-0.6l-1.2,1.2C62.4,167.1,63,167.7,63.4,167.3
		 M78.2,187.9l1.3-4.7l0.1-0.4c0.1-0.6-0.7-0.7-0.8-0.2l-1.4,5.1C77.2,188.3,78,188.5,78.2,187.9 M76,196.2l1.1-4.1
		c0.1-0.6-0.7-0.7-0.8-0.2l-1.1,4.1C75,196.5,75.8,196.7,76,196.2 M63.7,178.9l3.6-5.2c0.3-0.5-0.4-1-0.7-0.5l-3.6,5.2
		C62.7,178.9,63.4,179.4,63.7,178.9 M73.2,178.5l1.5-3.2c0.2-0.5-0.5-0.9-0.8-0.4l-1.5,3.2C72.2,178.7,72.9,179.1,73.2,178.5
		 M77.9,168.5l1.7-3.6c0.2-0.5-0.5-0.9-0.8-0.4l-1.7,3.6C76.9,168.6,77.6,169,77.9,168.5 M76.4,169.7l-0.7,1.5
		c-0.2,0.5,0.5,0.9,0.8,0.4l0.7-1.5C77.4,169.5,76.7,169.1,76.4,169.7 M71.7,181.6l0.7-1.5c0.2-0.5-0.5-0.9-0.8-0.4l-0.7,1.5
		C70.7,181.8,71.4,182.1,71.7,181.6 M73.9,204l1.7-6.1c0.1-0.6-0.7-0.7-0.8-0.2l-1.7,6.1C72.9,204.3,73.7,204.5,73.9,204
		 M57.4,123.7l3.9,1.8c0.5,0.2,0.8-0.6,0.4-0.8l-3.9-1.8C57.2,122.7,56.9,123.5,57.4,123.7 M80,181.3l1.8-6.6
		c0.1-0.6-0.7-0.7-0.8-0.2l-1.8,6.6C79,181.7,79.8,181.8,80,181.3 M65.9,194l0.4-0.8c0.2-0.5-0.5-0.9-0.8-0.4l-0.4,0.8
		C64.9,194.1,65.6,194.5,65.9,194 M67,191.7l0.7-1.5c0.2-0.5-0.5-0.9-0.8-0.4l-0.7,1.5C66,191.8,66.7,192.2,67,191.7 M70.9,167.2
		l-3.4,4.9c-0.3,0.5,0.4,1,0.7,0.5l3.4-4.9C71.9,167.3,71.2,166.8,70.9,167.2 M68.4,188.6l1.6-3.4c0.2-0.5-0.5-0.9-0.8-0.4l-1.6,3.4
		C67.5,188.7,68.1,189.1,68.4,188.6 M82.2,173.1l1.1-4.1c0.1-0.6-0.7-0.7-0.8-0.2l-1.1,4.1C81.2,173.4,82,173.6,82.2,173.1
		 M82.7,105.9c-0.1-0.5-1-0.3-0.8,0.2l1,3.8c0.1,0.5,1,0.3,0.8-0.2L82.7,105.9z M81.8,102.6c-0.1-0.5-1-0.3-0.8,0.2l0.4,1.7
		c0.1,0.5,1,0.3,0.8-0.2L81.8,102.6z M79.8,95.2c-0.1-0.5-1-0.3-0.8,0.2l1,3.9c0.1,0.5,1,0.3,0.8-0.2L79.8,95.2z M81.1,100.2
		c-0.1-0.5-1-0.3-0.8,0.2l0.2,0.8c0.1,0.5,1,0.3,0.8-0.2L81.1,100.2z M78.9,91.9c-0.1-0.5-1-0.3-0.8,0.2l0.4,1.7
		c0.1,0.5,1,0.3,0.8-0.2L78.9,91.9z M78.2,89.4c-0.1-0.5-1-0.3-0.8,0.2l0.2,0.8c0.1,0.5,1,0.3,0.8-0.2L78.2,89.4z M76.9,84.5
		c-0.1-0.5-1-0.3-0.8,0.2l1,3.8c0.1,0.5,1,0.3,0.8-0.2L76.9,84.5z M86,86l0.4,4.3c0.1,0.6,0.9,0.4,0.9-0.1l-0.4-4.3
		C86.8,85.3,86,85.5,86,86 M57.4,116.1l0.7,0.5c0.4,0.3,1-0.4,0.5-0.7l-0.7-0.5C57.5,115.1,56.9,115.8,57.4,116.1 M87.2,99.6l0.5,6
		c0.1,0.6,0.9,0.4,0.9-0.1l-0.5-6C88,98.9,87.2,99.1,87.2,99.6 M85.1,75.8l0.6,6.9c0.1,0.6,0.9,0.4,0.9-0.1L86,75.7
		C85.9,75.1,85.1,75.2,85.1,75.8 M84.5,68.1l0.5,6.3c0.1,0.6,0.9,0.4,0.9-0.1L85.3,68C85.2,67.4,84.4,67.6,84.5,68.1 M83.9,62.1
		l0.4,4.3c0.1,0.6,0.9,0.4,0.9-0.1l-0.4-4.3C84.7,61.5,83.9,61.6,83.9,62.1 M83.2,111.1l0.2,0.8c0.1,0.5,1,0.3,0.8-0.2l-0.2-0.8
		C83.9,110.4,83,110.5,83.2,111.1 M64.5,101.2c-0.3-0.5-1,0-0.7,0.5l0.5,0.7c0.3,0.5,1,0,0.7-0.5L64.5,101.2z M76,81.2
		c-0.1-0.5-1-0.3-0.8,0.2l0.4,1.7c0.1,0.5,1,0.3,0.8-0.2L76,81.2z M61.6,97c-0.3-0.5-1,0-0.7,0.5l2.2,3.1c0.3,0.5,1,0,0.7-0.5
		L61.6,97z M62.4,111.2l4.8,4.8c0.4,0.4,1-0.2,0.6-0.6l-4.8-4.8C62.6,110.2,62,110.8,62.4,111.2 M58.1,92.1c-0.3-0.5-1,0-0.7,0.5
		l0.5,0.7c0.3,0.5,1,0,0.7-0.5L58.1,92.1z M60,116.9c-0.4-0.3-1,0.4-0.5,0.7l1.4,1c0.5,0.3,1-0.4,0.5-0.7L60,116.9z M66,103.3
		c-0.3-0.5-1,0-0.7,0.5l1,1.4c0.3,0.5,1,0,0.7-0.5L66,103.3z M73.1,70.4c-0.1-0.5-1-0.3-0.8,0.2l0.4,1.7c0.1,0.5,1,0.3,0.8-0.2
		L73.1,70.4z M74,73.7c-0.1-0.5-1-0.3-0.8,0.2l0.9,3.5c0.1,0.5,1,0.3,0.8-0.2L74,73.7z M66,84.2c-0.2-0.5-1-0.2-0.8,0.4l1.8,3.9
		c0.2,0.5,1,0.2,0.8-0.4L66,84.2z M75.3,78.7c-0.1-0.5-1-0.3-0.8,0.2l0.2,0.8c0.1,0.5,1,0.3,0.8-0.2L75.3,78.7z M71,96.9l2.5,5.4
		c0.2,0.5,1,0.2,0.8-0.4l-2.5-5.4C71.6,96.1,70.8,96.4,71,96.9 M68.5,89.6c-0.2-0.5-1-0.2-0.8,0.4l2.7,5.9c0.2,0.5,1,0.2,0.8-0.4
		L68.5,89.6z M86.6,91.9l0.6,6.8c0.1,0.6,0.9,0.4,0.9-0.1l-0.6-6.8C87.3,91.3,86.5,91.4,86.6,91.9 M115.2,175.2l0.1,0.1
		c0.3,0.5,1,0,0.7-0.5l-0.1-0.1C115.6,174.2,114.9,174.7,115.2,175.2 M132.6,136.2l1.7-0.1c0.6-0.1,0.4-0.9-0.1-0.9l-1.7,0.1
		C131.9,135.5,132.1,136.3,132.6,136.2 M123.6,93.4l2.9-4.2c0.3-0.4-0.4-1-0.7-0.5l-3,4.3C122.6,93.5,123.2,93.9,123.6,93.4
		 M128.7,102l3-3c0.4-0.4-0.2-1-0.6-0.6l-3,3C127.7,101.8,128.3,102.4,128.7,102 M130.9,121.3l1.6-0.7c0.5-0.2,0.2-1-0.4-0.8
		l-1.5,0.7C130,120.8,130.3,121.6,130.9,121.3 M129,85.8l2.5-3.5c0.3-0.5-0.4-1-0.7-0.5l-2.5,3.5C127.9,85.7,128.6,86.2,129,85.8
		 M127.4,130.1l6.6-1.8c0.5-0.1,0.3-1-0.2-0.8l-6.6,1.8C126.6,129.4,126.8,130.2,127.4,130.1 M129.5,177.1l-3-3
		c-0.4-0.4-1,0.2-0.6,0.6l3,3C129.3,178.1,129.9,177.5,129.5,177.1 M121.9,183.2l0.4,0.6c0,0,0,0,0,0L121.9,183.2z M121.6,184.3
		L121.6,184.3c0.4,0.6,1.1,0.1,0.8-0.4l-0.1-0.1C122,183.4,121.3,183.9,121.6,184.3 M127.9,193.2l0.2,0.2c0.3,0.5,1,0,0.7-0.5
		l-0.2-0.2C128.2,192.3,127.6,192.8,127.9,193.2 M118.6,166.2l-4.8-4.8c-0.4-0.4-1,0.2-0.6,0.6l4.8,4.8
		C118.4,167.2,119,166.6,118.6,166.2 M117,176.2c-0.3-0.5-1,0-0.7,0.5l1,1.4c0.3,0.5,1,0,0.7-0.5L117,176.2z M123.4,171l-4.2-4.2
		c-0.4-0.4-1,0.2-0.6,0.6l4.2,4.2C123.2,172.1,123.8,171.4,123.4,171 M122.4,93.7l0.5-0.6c0,0,0-0.1,0-0.1L122.4,93.7z M109.9,167.6
		l1,1.4c0.3,0.5,1,0,0.7-0.5l-1-1.4C110.3,166.6,109.6,167.1,109.9,167.6 M99.8,151.7c-0.3-0.5-1,0-0.7,0.5l2.5,3.5
		c0.3,0.5,1,0,0.7-0.5L99.8,151.7z M112.5,160.2l-3-3c-0.4-0.4-1,0.2-0.6,0.6l3,3C112.3,161.2,112.9,160.6,112.5,160.2 M114.1,155.9
		l1.4,1c0.4,0.3,1-0.4,0.5-0.7l-1.4-1C114.2,154.8,113.7,155.5,114.1,155.9 M101.7,149.3l-4.8-4.8c-0.4-0.4-1,0.2-0.6,0.6l4.8,4.8
		C101.5,150.3,102.1,149.7,101.7,149.3 M102.1,156.4l0.5,0.7c0.3,0.5,1,0,0.7-0.5l-0.5-0.7C102.4,155.4,101.7,155.9,102.1,156.4
		 M122.9,147.3l-1.7-0.4c-0.6-0.1-0.7,0.7-0.2,0.8l1.7,0.4C123.3,148.2,123.5,147.4,122.9,147.3 M124.4,148.5l4.1,1.1
		c0.6,0.1,0.7-0.7,0.2-0.8l-4.1-1.1C124,147.6,123.8,148.4,124.4,148.5 M126.6,141.7l-4.3-0.4c-0.5-0.1-0.7,0.8-0.1,0.9l4.3,0.4
		C127.1,142.6,127.2,141.8,126.6,141.7 M121.8,161.2L121.8,161.2c0.5,0.4,1-0.3,0.6-0.6l-0.2-0.2
		C121.7,160.3,121.4,160.9,121.8,161.2 M121.6,160.1l0.5,0.3c0.1,0,0.1,0,0.2,0.1L121.6,160.1z M130,135.6c-0.6,0.1-0.4,0.9,0.1,0.9
		l0.9-0.1c0.6-0.1,0.4-0.9-0.1-0.9L130,135.6z M119,151.5l-5.4-2.5c-0.5-0.2-0.8,0.6-0.4,0.8l5.4,2.5
		C119.2,152.5,119.5,151.7,119,151.5 M90.1,153.6c0.1-0.5-0.8-0.7-0.9-0.1l-0.2,1.7c-0.1,0.5,0.8,0.7,0.9,0.1L90.1,153.6z
		 M87.2,186.8c0.1-0.5-0.8-0.7-0.9-0.1l-0.2,1.7c-0.1,0.5,0.8,0.7,0.9,0.1L87.2,186.8z M87.4,184.9c0.1-0.5-0.8-0.7-0.9-0.1l0,0.2
		c-0.1,0.5,0.8,0.7,0.9,0.1L87.4,184.9z M88.4,173.9c0.1-0.5-0.8-0.7-0.9-0.1l0,0.2c-0.1,0.5,0.8,0.7,0.9,0.1L88.4,173.9z
		 M88.2,175.7c0.1-0.5-0.8-0.7-0.9-0.1l-0.1,1.7c-0.1,0.5,0.8,0.7,0.9,0.1L88.2,175.7z M87.9,179.2c0.1-0.5-0.8-0.7-0.9-0.1
		l-0.4,4.3c-0.1,0.5,0.8,0.7,0.9,0.1L87.9,179.2z M86.4,195.9c0.1-0.5-0.8-0.7-0.9-0.1l0,0.3c-0.1,0.5,0.8,0.7,0.9,0.1L86.4,195.9z
		 M86.9,190.2c0.1-0.5-0.8-0.7-0.9-0.1l-0.4,4.3c-0.1,0.5,0.8,0.7,0.9,0.1L86.9,190.2z M84.6,216.6l0.4-4.3c0.1-0.5-0.8-0.7-0.9-0.1
		l-0.4,4.3C83.7,217.1,84.5,217.2,84.6,216.6 M85.3,209c0.1-0.5-0.8-0.7-0.9-0.1l-0.1,1.7c-0.1,0.5,0.8,0.7,0.9,0.1L85.3,209z
		 M84.4,164.8l1.6-5.8c0.1-0.6-0.7-0.7-0.8-0.2l-1.6,5.8C83.4,165.2,84.3,165.3,84.4,164.8 M86,201.3c0.1-0.5-0.8-0.7-0.9-0.1
		l-0.4,4.3c-0.1,0.5,0.8,0.7,0.9,0.1L86,201.3z M85.4,207.1c0.1-0.5-0.8-0.7-0.9-0.1l0,0.2c-0.1,0.5,0.8,0.7,0.9,0.1L85.4,207.1z
		 M86.3,197.9c0.1-0.5-0.8-0.7-0.9-0.1l-0.1,1.7c-0.1,0.5,0.8,0.7,0.9,0.1L86.3,197.9z M89.4,162.1c0.1-0.5-0.8-0.7-0.9-0.1
		l-0.1,0.9c-0.1,0.5,0.8,0.7,0.9,0.1L89.4,162.1z M88.9,168.1c0.1-0.5-0.8-0.7-0.9-0.1l-0.4,4.3c-0.1,0.5,0.8,0.7,0.9,0.1
		L88.9,168.1z M136.6,94.1l1.7-1.7v-1.2l-2.3,2.3C135.5,93.9,136.2,94.5,136.6,94.1 M91.6,139.2l-2.9-6.2c-0.2-0.5-1-0.2-0.8,0.4
		l2.9,6.2C91.1,140.1,91.9,139.8,91.6,139.2 M135.7,127.9l2.5-0.7v-0.9l-2.8,0.8C135,127.2,135.2,128,135.7,127.9 M132.9,167.9
		c-0.5-0.3-1,0.4-0.5,0.7l1.4,1c0.4,0.3,1-0.4,0.5-0.7L132.9,167.9z M134.5,158.7l-6.2-2.9c-0.5-0.2-0.9,0.6-0.4,0.8l6.2,2.9
		C134.7,159.8,134.9,159,134.5,158.7 M91.1,142.5c0.1-0.5-0.8-0.7-0.9-0.1l-0.1,1.7c-0.1,0.5,0.8,0.7,0.9,0.1L91.1,142.5z
		 M130.8,167.5l0.2,0.2c0.5,0.3,1-0.4,0.5-0.7l-0.2-0.2C130.8,166.4,130.3,167.1,130.8,167.5 M89.2,164.7c0.1-0.5-0.8-0.7-0.9-0.1
		l-0.1,1.7c-0.1,0.5,0.8,0.7,0.9,0.1L89.2,164.7z M89.9,157c0.1-0.5-0.8-0.7-0.9-0.1l-0.4,4.3c-0.1,0.5,0.8,0.7,0.9,0.1L89.9,157z
		 M90.8,145.9c0.1-0.5-0.8-0.7-0.9-0.1l-0.4,4.3c-0.1,0.5,0.8,0.7,0.9,0.1L90.8,145.9z M90.4,151c0.1-0.5-0.8-0.7-0.9-0.1l-0.1,0.9
		c-0.1,0.5,0.8,0.7,0.9,0.1L90.4,151z M83.7,154.2l-1.8,3.9c-0.2,0.5,0.5,0.9,0.8,0.4l1.8-3.9C84.7,154.1,84,153.7,83.7,154.2
		 M62.8,126.3l6.2,2.9c0.5,0.2,0.8-0.6,0.4-0.8l-6.2-2.9C62.6,125.2,62.3,126,62.8,126.3 M77.3,152.2l-0.6,0.6
		c-0.4,0.4,0.2,1,0.6,0.6l0.6-0.6C78.3,152.4,77.7,151.8,77.3,152.2 M79.7,149.8l-1.2,1.2c-0.4,0.4,0.2,1,0.6,0.6l1.2-1.2
		C80.7,150,80.1,149.4,79.7,149.8 M82.1,144.9l-4.9,3.4c-0.5,0.3,0,1,0.5,0.7l4.9-3.4C83,145.3,82.5,144.6,82.1,144.9 M70.2,110.8
		l0.5,0.7c0.3,0.5,1,0,0.7-0.5l-0.5-0.7C70.5,109.9,69.9,110.4,70.2,110.8 M67.9,141.9c0.6-0.1,0.4-0.9-0.1-0.9l-1.7,0.1
		c-0.6,0.1-0.4,0.9,0.1,0.9L67.9,141.9z M68.9,150.3c0.5-0.2,0.2-1-0.4-0.8l-0.8,0.4c-0.5,0.2-0.2,1,0.4,0.8L68.9,150.3z
		 M74.7,141.3l0.9-0.1c0.6-0.1,0.4-0.9-0.1-0.9l-0.9,0.1C74,140.5,74.2,141.4,74.7,141.3 M86.9,121.6c-0.1-0.5-1-0.3-0.8,0.2
		l0.2,0.8c0.1,0.5,1,0.3,0.8-0.2L86.9,121.6z M73.7,140.5l-4.3,0.4c-0.6,0.1-0.4,0.9,0.1,0.9l4.3-0.4
		C74.4,141.3,74.3,140.5,73.7,140.5 M67.8,116.6l4.2,4.2c0.4,0.4,1-0.2,0.6-0.6l-4.2-4.2C68,115.6,67.4,116.2,67.8,116.6
		 M86.7,124.3l0.4,1.7c0.1,0.5,1,0.3,0.8-0.2l-0.4-1.7C87.4,123.6,86.6,123.8,86.7,124.3 M85.5,116.7c-0.1-0.5-1-0.3-0.8,0.2
		l1.1,4.1c0.1,0.5,1,0.3,0.8-0.2L85.5,116.7z M87.1,140.8l-3.9,1.8c-0.5,0.2-0.2,1,0.4,0.8l3.9-1.8C88,141.4,87.7,140.6,87.1,140.8
		 M86.4,143.1c-0.4,0.4,0.2,1,0.6,0.6l1.2-1.2c0.4-0.4-0.2-1-0.6-0.6L86.4,143.1z M88.1,109.8l0.4,4.3c0.1,0.6,0.9,0.4,0.9-0.1
		l-0.4-4.3C88.9,109.2,88.1,109.3,88.1,109.8 M78.6,144.8l-0.8,0.4c-0.5,0.2-0.2,1,0.4,0.8l0.8-0.4
		C79.4,145.3,79.1,144.5,78.6,144.8 M79.2,142.1l-4.1,1.1c-0.5,0.1-0.3,1,0.2,0.8l4.1-1.1C80,142.8,79.8,141.9,79.2,142.1 M74.6,138
		l4.3,0.4c0.5,0.1,0.7-0.8,0.1-0.9l-4.3-0.4C74.2,137.1,74,137.9,74.6,138 M77.2,140.2c-0.6,0.1-0.4,0.9,0.1,0.9l1.7-0.1
		c0.6-0.1,0.4-0.9-0.1-0.9L77.2,140.2z M69.8,129.5l5.4,2.5c0.5,0.2,0.8-0.6,0.4-0.8l-5.4-2.5C69.6,128.5,69.3,129.3,69.8,129.5
		 M80,135.7l-1.7-0.4c-0.6-0.1-0.7,0.7-0.2,0.8l1.7,0.4C80.3,136.7,80.5,135.9,80,135.7 M76.5,135.7c0.6,0.1,0.7-0.7,0.2-0.8
		l-0.8-0.2c-0.6-0.1-0.7,0.7-0.2,0.8L76.5,135.7z M70.5,124.3l-1.4-1c-0.5-0.3-1,0.4-0.5,0.7l1.4,1C70.5,125.3,71,124.6,70.5,124.3
		 M75.1,123.9l3,3c0.4,0.4,1-0.2,0.6-0.6l-3-3C75.3,122.9,74.7,123.5,75.1,123.9 M69.2,132.9l-1.7-0.4c-0.6-0.1-0.7,0.7-0.2,0.8
		l1.7,0.4C69.6,133.8,69.8,133,69.2,132.9 M84.9,140.4c0.6-0.1,0.4-0.9-0.1-0.9l-4.3,0.4c-0.6,0.1-0.4,0.9,0.1,0.9L84.9,140.4z
		 M77.7,120.2l-0.5-0.7c-0.3-0.5-1,0-0.7,0.5l0.5,0.7C77.4,121.1,78.1,120.6,77.7,120.2 M80.5,144.8l1.5-0.7c0.5-0.2,0.2-1-0.4-0.8
		l-1.5,0.7C79.6,144.3,79.9,145.1,80.5,144.8 M71,144.3l-5.8,1.5c-0.5,0.1-0.3,1,0.2,0.8l5.8-1.5C71.7,145,71.6,144.1,71,144.3
		 M48.3,158.9l-0.8,0.4c-0.5,0.2-0.2,1,0.4,0.8l0.8-0.4C49.2,159.4,48.9,158.6,48.3,158.9 M51.1,142.5l-3.7,0.3
		c-0.6,0.1-0.4,0.9,0.1,0.9l3.7-0.3C51.8,143.3,51.6,142.4,51.1,142.5 M53.7,175.8l-0.6,0.6c-0.4,0.4,0.2,1,0.6,0.6l0.6-0.6
		C54.7,176,54.1,175.4,53.7,175.8 M44.2,127.1c0.6,0.1,0.7-0.7,0.2-0.8l-0.8-0.2c0,0-0.1,0-0.1,0c0,0.3-0.1,0.6-0.1,0.8L44.2,127.1z
		 M46.6,134.7l-3.7-0.3c0,0.3,0,0.6,0,0.9l3.7,0.3C47,135.6,47.2,134.8,46.6,134.7 M56.1,173.3l-1.2,1.2c-0.4,0.4,0.2,1,0.6,0.6
		l1.2-1.2C57.1,173.5,56.5,172.9,56.1,173.3 M67.9,106.1c-0.3-0.5-1,0-0.7,0.5l2.5,3.5c0.3,0.5,1,0,0.7-0.5L67.9,106.1z
		 M135.9,135.1c-0.6,0.1-0.4,0.9,0.1,0.9l2.3-0.2v-0.9L135.9,135.1z M84.6,60.3l-0.1-0.6c-0.3,0.2-0.5,0.4-0.8,0.6l0,0.2
		C83.8,61,84.6,60.8,84.6,60.3 M134.7,201.4l0.4,0.6c0,0,0,0,0,0L134.7,201.4z M56.4,162.9l-5.2,3.6c-0.5,0.3,0,1,0.5,0.7l5.2-3.6
		C57.4,163.2,56.9,162.5,56.4,162.9 M43.9,143.1c-0.6,0.1-0.4,0.9,0.1,0.9l1.7-0.1c0.6-0.1,0.4-0.9-0.1-0.9L43.9,143.1z
		 M134.4,202.5L134.4,202.5c0.4,0.6,1.1,0.1,0.8-0.4l-0.1-0.1C134.7,201.6,134.1,202.1,134.4,202.5 M135.5,183.1l-4.8-4.8
		c-0.4-0.4-1,0.2-0.6,0.6l4.8,4.8C135.3,184.1,135.9,183.5,135.5,183.1 M62.5,158.6l-4.9,3.4c-0.5,0.3,0,1,0.5,0.7l4.9-3.4
		C63.4,159,62.9,158.3,62.5,158.6 M61.6,167.9l-0.6,0.6c-0.4,0.4,0.2,1,0.6,0.6l0.6-0.6C62.6,168.1,62,167.5,61.6,167.9 M47.8,127.1
		l-1.7-0.4c-0.6-0.1-0.7,0.7-0.2,0.8l1.7,0.4C48.1,128.1,48.3,127.2,47.8,127.1 M58,148.6l5.8-1.6c0.5-0.1,0.3-1-0.2-0.8l-5.8,1.6
		C57.2,148,57.4,148.8,58,148.6 M74.6,173.5c-0.2,0.5,0.5,0.9,0.8,0.4l0.4-0.8c0.2-0.5-0.5-0.9-0.8-0.4L74.6,173.5z M62.3,142.4
		c0.6-0.1,0.4-0.9-0.1-0.9l-3.9,0.3c-0.6,0.1-0.4,0.9,0.1,0.9L62.3,142.4z M76.1,153.4l-3,3c-0.4,0.4,0.2,1,0.6,0.6l3-3
		C77.1,153.6,76.5,153,76.1,153.4 M75.8,160.2l-2.5,3.5c-0.3,0.5,0.4,1,0.7,0.5l2.5-3.5C76.8,160.3,76.1,159.8,75.8,160.2
		 M48.1,119.4l5.4,2.5c0.5,0.2,0.8-0.6,0.4-0.8l-5.4-2.5C47.9,118.4,47.6,119.2,48.1,119.4 M50.4,111.2l1.4,1c0.5,0.3,1-0.4,0.5-0.7
		l-1.4-1C50.4,110.2,49.9,110.9,50.4,111.2 M49,110.2c0.5,0.3,1-0.4,0.5-0.7l-0.7-0.5c-0.4-0.3-1,0.4-0.5,0.7L49,110.2z M60.6,95.6
		l-1-1.4c-0.3-0.5-1,0-0.7,0.5l1,1.4C60.2,96.6,60.9,96.1,60.6,95.6 M58.1,107l3,3c0.4,0.4,1-0.2,0.6-0.6l-3-3
		C58.3,105.9,57.7,106.6,58.1,107 M66.5,156.9l3.5-2.5c0.5-0.3,0-1-0.5-0.7l-3.5,2.5C65.5,156.5,66,157.2,66.5,156.9 M76.5,148.8
		l-5.6,3.9c-0.5,0.3,0,1,0.5,0.7l5.6-3.9C77.4,149.2,76.9,148.5,76.5,148.8 M71.2,159.4l1.2-1.2c0.4-0.4-0.2-1-0.6-0.6l-1.2,1.2
		C70.2,159.2,70.8,159.8,71.2,159.4 M84.9,153.8l0.4-0.8c0.2-0.5-0.5-0.9-0.8-0.4l-0.4,0.8C83.9,153.9,84.6,154.3,84.9,153.8
		 M81.2,161.5l0.7-1.5c0.2-0.5-0.5-0.9-0.8-0.4l-0.7,1.5C80.2,161.7,80.9,162,81.2,161.5 M80.1,163.8l0.4-0.8
		c0.2-0.5-0.5-0.9-0.8-0.4l-0.4,0.8C79.1,164,79.8,164.4,80.1,163.8 M85.3,148.1c0.3-0.5-0.4-1-0.7-0.5l-3.4,4.9
		c-0.3,0.5,0.4,1,0.7,0.5L85.3,148.1z M70.4,149.5l1.5-0.7c0.5-0.2,0.2-1-0.4-0.8l-1.5,0.7C69.6,149,69.9,149.8,70.4,149.5
		 M77.4,159.3l3.9-5.6c0.3-0.5-0.4-1-0.7-0.5l-3.9,5.6C76.4,159.3,77.1,159.8,77.4,159.3 M61.5,152.7l-1.6,0.7
		c-0.5,0.2-0.2,1,0.4,0.8l1.6-0.7C62.4,153.3,62.1,152.5,61.5,152.7 M69.4,161.2l0.6-0.6c0.4-0.4-0.2-1-0.6-0.6l-0.6,0.6
		C68.4,161,69,161.6,69.4,161.2 M83.3,134.9l-3.9-1.8c-0.5-0.2-0.8,0.6-0.4,0.8l3.9,1.8C83.5,135.9,83.8,135.1,83.3,134.9 M58,155.3
		l0.8-0.4c0.5-0.2,0.2-1-0.4-0.8l-0.8,0.4C57.2,154.7,57.5,155.5,58,155.3 M64.4,137.1l6,0.5c0.5,0.1,0.7-0.8,0.1-0.9l-6-0.5
		C63.9,136.2,63.8,137.1,64.4,137.1 M65.8,164.9l3-3c0.4-0.4-0.2-1-0.6-0.6l-3,3C64.8,164.7,65.4,165.3,65.8,164.9 M63.4,152.8
		l3.9-1.8c0.5-0.2,0.2-1-0.4-0.8l-3.9,1.8C62.6,152.2,62.9,153,63.4,152.8 M89.2,133.4c0.1,0.5,1,0.3,0.8-0.2l-0.2-0.8
		c-0.1-0.5-1-0.3-0.8,0.2L89.2,133.4z M89.5,131.5l-1.1-4.1c-0.1-0.5-1-0.3-0.8,0.2l1.1,4.1C88.8,132.3,89.7,132.1,89.5,131.5
		 M88,131.5l-1.8-3.9c-0.2-0.5-1-0.2-0.8,0.4l1.8,3.9C87.5,132.3,88.3,132,88,131.5 M88.7,115.8l0.6,6.8c0.1,0.6,0.9,0.4,0.9-0.1
		l-0.6-6.8C89.4,115.1,88.6,115.3,88.7,115.8 M85.3,133c-0.4-0.4-1,0.2-0.6,0.6l4.2,4.2c0.4,0.4,1-0.2,0.6-0.6L85.3,133z
		 M90.7,129.4l-0.5-6c-0.1-0.6-0.9-0.4-0.9,0.1l0.5,6C89.9,130,90.8,129.9,90.7,129.4 M88.5,144.1l-1.8,3.9
		c-0.2,0.5,0.5,0.9,0.8,0.4l1.8-3.9C89.4,144,88.8,143.6,88.5,144.1 M89.6,143.7L90,143c0.2-0.5-0.5-0.9-0.8-0.4l-0.4,0.8
		C88.6,143.9,89.3,144.2,89.6,143.7 M85.9,151.5l0.7-1.5c0.2-0.5-0.5-0.9-0.8-0.4l-0.7,1.5C85,151.6,85.7,152,85.9,151.5
		 M89.9,139.1l-1.7,0.1c-0.6,0.1-0.4,0.9,0.1,0.9l0.3,0l0,0c0.1,0,0.2,0,0.3,0L90,140C90.6,139.9,90.5,139,89.9,139.1 M86.2,158.2
		l1.8-6.6c0.1-0.6-0.7-0.7-0.8-0.2l-1.8,6.6C85.2,158.5,86,158.7,86.2,158.2 M89.5,140.6l-2.5,3.5c-0.3,0.5,0.4,1,0.7,0.5l2.5-3.5
		C90.5,140.7,89.8,140.1,89.5,140.6 M87.9,140.4c-0.5,0.2-0.2,1,0.4,0.8l0.8-0.4c0.4-0.2,0.3-0.7-0.1-0.8l-0.3,0L87.9,140.4z
		 M63.6,142.3l0.9-0.1c0.6-0.1,0.4-0.9-0.1-0.9l-0.9,0.1C62.9,141.5,63.1,142.3,63.6,142.3 M87.5,138.3l-1.9-0.2
		c0.6,0.1,0.7-0.7,0.2-0.8l-4.1-1.1c-0.6-0.1-0.7,0.7-0.2,0.8l4.1,1.1l-4.9-0.4c-0.5-0.1-0.7,0.8-0.1,0.9l6.8,0.6
		C87.9,139.2,88.1,138.4,87.5,138.3 M86.6,140.3c0.6-0.1,0.4-0.9-0.1-0.9l-0.9,0.1c-0.6,0.1-0.4,0.9,0.1,0.9L86.6,140.3z
		 M85.2,134.6c-0.5-0.3-1,0.4-0.5,0.7l0.7,0.5c0.5,0.3,1-0.4,0.5-0.7L85.2,134.6z M84.7,132.3l-4.8-4.8c-0.4-0.4-1,0.2-0.6,0.6
		l4.8,4.8C84.5,133.4,85.1,132.7,84.7,132.3 M85.2,145.5l0.6-0.6c0.4-0.4-0.2-1-0.6-0.6l-0.6,0.6C84.2,145.3,84.8,145.9,85.2,145.5
		 M81,131.6c-0.4-0.3-1,0.4-0.5,0.7l3.5,2.5c0.4,0.3,1-0.4,0.5-0.7L81,131.6z M79.7,123l-1-1.4c-0.3-0.5-1,0-0.7,0.5l1,1.4
		C79.3,123.9,80,123.4,79.7,123 M75.6,128.9l0.7,0.5c0.4,0.3,1-0.4,0.5-0.7l-0.7-0.5C75.7,127.9,75.2,128.5,75.6,128.9 M80.7,124.4
		c-0.3-0.5-1,0-0.7,0.5l2.5,3.5c0.3,0.5,1,0,0.7-0.5L80.7,124.4z M78.2,129.7c-0.5-0.3-1,0.4-0.5,0.7l1.4,1c0.5,0.3,1-0.4,0.5-0.7
		L78.2,129.7z M81.5,149.2l3-3c0.4-0.4-0.2-1-0.6-0.6l-3,3C80.5,148.9,81.1,149.6,81.5,149.2 M70.7,134.1l4.1,1.1
		c0.6,0.1,0.7-0.7,0.2-0.8l-4.1-1.1C70.3,133.2,70.1,134,70.7,134.1 M73.5,148.1l3.9-1.8c0.5-0.2,0.2-1-0.4-0.8l-3.9,1.8
		C72.7,147.5,73,148.3,73.5,148.1 M84.7,113.4c-0.1-0.5-1-0.3-0.8,0.2l0.4,1.7c0.1,0.5,1,0.3,0.8-0.2L84.7,113.4z M94.8,135.9
		l1.2-1.2c0.4-0.4-0.2-1-0.6-0.6l-1.2,1.2C93.8,135.6,94.4,136.3,94.8,135.9 M82.9,129l0.5,0.7c0.3,0.5,1,0,0.7-0.5l-0.5-0.7
		C83.3,128.1,82.6,128.6,82.9,129 M71.4,125.9l3.5,2.5c0.4,0.3,1-0.4,0.5-0.7l-3.5-2.5C71.5,124.9,71,125.6,71.4,125.9 M72.4,112.4
		c-0.3-0.5-1,0-0.7,0.5l1,1.4c0.3,0.5,1,0,0.7-0.5L72.4,112.4z M62.8,118.9c-0.5-0.3-1,0.4-0.5,0.7l3.2,2.3c0.5,0.3,1-0.4,0.5-0.7
		L62.8,118.9z M65.1,131.8c-0.6-0.1-0.7,0.7-0.2,0.8l0.8,0.2c0.6,0.1,0.7-0.7,0.2-0.8L65.1,131.8z M66.5,122.5l0.7,0.5
		c0.4,0.3,1-0.4,0.5-0.7l-0.7-0.5C66.6,121.5,66.1,122.2,66.5,122.5 M81.1,118.6l2.5,5.4c0.2,0.5,1,0.2,0.8-0.4l-2.5-5.4
		C81.7,117.8,80.9,118.1,81.1,118.6 M59.9,131.3l4.1,1.1c0.6,0.1,0.7-0.7,0.2-0.8l-4.1-1.1C59.6,130.3,59.4,131.1,59.9,131.3
		 M86.1,132.1l-1-1.4c-0.3-0.5-1,0-0.7,0.5l1,1.4C85.7,133,86.4,132.5,86.1,132.1 M78.6,111.3c-0.2-0.5-1-0.2-0.8,0.4l2.9,6.2
		c0.2,0.5,1,0.2,0.8-0.4L78.6,111.3z M73.6,115.7l2.5,3.5c0.3,0.5,1,0,0.7-0.5l-2.5-3.5C74,114.8,73.3,115.3,73.6,115.7 M76.1,105.9
		c-0.2-0.5-1-0.2-0.8,0.4l1.8,3.9c0.2,0.5,1,0.2,0.8-0.4L76.1,105.9z M102.8,139.6l-4.3-0.4c-0.5-0.1-0.7,0.8-0.1,0.9l4.3,0.4
		C103.2,140.5,103.4,139.7,102.8,139.6 M98.1,53.9l-0.1,1.7c-0.1,0.5,0.8,0.7,0.9,0.1l0.1-1.7C99,53.4,98.1,53.3,98.1,53.9 M95,88.8
		c-0.1,0.5,0.8,0.7,0.9,0.1l0.2-1.7c0.1-0.5-0.8-0.7-0.9-0.1L95,88.8z M95.3,85.4c-0.1,0.5,0.8,0.7,0.9,0.1l0.1-0.9
		c0.1-0.5-0.8-0.7-0.9-0.1L95.3,85.4z M94.3,96.4c-0.1,0.5,0.8,0.7,0.9,0.1l0.1-0.9c0.1-0.5-0.8-0.7-0.9-0.1L94.3,96.4z M93.5,105.8
		c-0.1,0.5,0.8,0.7,0.9,0.1l0.4-4.3c0.1-0.5-0.8-0.7-0.9-0.1L93.5,105.8z M93.3,107.5c-0.1,0.5,0.8,0.7,0.9,0.1l0.1-0.9
		c0.1-0.5-0.8-0.7-0.9-0.1L93.3,107.5z M95.5,82.9c-0.1,0.5,0.8,0.7,0.9,0.1l0.3-3.5c0.1-0.5-0.8-0.7-0.9-0.1L95.5,82.9z M94,99.9
		c-0.1,0.5,0.8,0.7,0.9,0.1l0.1-1.7c0.1-0.5-0.8-0.7-0.9-0.1L94,99.9z M97.2,63.2c-0.1,0.5,0.8,0.7,0.9,0.1l0.1-0.9
		c0.1-0.5-0.8-0.7-0.9-0.1L97.2,63.2z M96,77.7c-0.1,0.5,0.8,0.7,0.9,0.1l0.2-1.7c0.1-0.5-0.8-0.7-0.9-0.1L96,77.7z M97.4,61.2
		c-0.1,0.5,0.8,0.7,0.9,0.1l0.3-3.9c0.1-0.5-0.8-0.7-0.9-0.1L97.4,61.2z M96.9,66.6c-0.1,0.5,0.8,0.7,0.9,0.1l0.1-1.7
		c0.1-0.5-0.8-0.7-0.9-0.1L96.9,66.6z M96.4,72c-0.1,0.5,0.8,0.7,0.9,0.1l0.3-3.6c0.1-0.5-0.8-0.7-0.9-0.1L96.4,72z M94.7,132.9
		c0.2-0.5-0.5-0.9-0.8-0.4l-0.4,0.8c-0.2,0.5,0.5,0.9,0.8,0.4L94.7,132.9z M94.5,94.2c-0.1,0.5,0.8,0.7,0.9,0.1l0.3-3.7
		c0.1-0.5-0.8-0.7-0.9-0.1L94.5,94.2z M92.8,153.2l-0.5-6c-0.1-0.6-0.9-0.4-0.9,0.1l0.5,6C92,153.9,92.9,153.7,92.8,153.2
		 M94.9,177.1l-0.5-6c-0.1-0.6-0.9-0.4-0.9,0.1l0.5,6C94.1,177.7,95,177.6,94.9,177.1 M93.6,161.7l-0.4-4.3
		c-0.1-0.6-0.9-0.4-0.9,0.1l0.4,4.3C92.8,162.4,93.6,162.2,93.6,161.7 M94.3,170.2l-0.6-6.8c-0.1-0.6-0.9-0.4-0.9,0.1l0.6,6.8
		C93.5,170.9,94.4,170.8,94.3,170.2 M96.4,194.1l-0.6-6.8c-0.1-0.6-0.9-0.4-0.9,0.1l0.6,6.8C95.6,194.8,96.5,194.6,96.4,194.1
		 M95.6,185.6l-0.4-4.3c-0.1-0.6-0.9-0.4-0.9,0.1l0.4,4.3C94.9,186.2,95.7,186.1,95.6,185.6 M92.4,118.6c-0.1,0.5,0.8,0.7,0.9,0.1
		l0.1-0.9c0.1-0.5-0.8-0.7-0.9-0.1L92.4,118.6z M92.1,122c-0.1,0.5,0.8,0.7,0.9,0.1l0.1-1.7c0.1-0.5-0.8-0.7-0.9-0.1L92.1,122z
		 M91.1,133.1c-0.1,0.5,0.8,0.7,0.9,0.1l0.1-1.7c0.1-0.5-0.8-0.7-0.9-0.1L91.1,133.1z M92.5,116.9c-0.1,0.5,0.8,0.7,0.9,0.1l0.4-4.3
		c0.1-0.5-0.8-0.7-0.9-0.1L92.5,116.9z M93,110.9c-0.1,0.5,0.8,0.7,0.9,0.1l0.1-1.7c0.1-0.5-0.8-0.7-0.9-0.1L93,110.9z M97,200.9
		l-0.5-5.3c-0.1-0.6-0.9-0.4-0.9,0.1l0.5,5.3C96.2,201.6,97.1,201.4,97,200.9 M91.4,129.7c-0.1,0.5,0.8,0.7,0.9,0.1l0.1-0.9
		c0.1-0.5-0.8-0.7-0.9-0.1L91.4,129.7z M91.5,128c-0.1,0.5,0.8,0.7,0.9,0.1l0.4-4.3c0.1-0.5-0.8-0.7-0.9-0.1L91.5,128z M127.1,62.1
		l-0.1,0.2c-0.2,0.5,0.5,0.9,0.8,0.4l0.1-0.2C128.1,62,127.4,61.6,127.1,62.1 M126.4,63.7l-1.8,3.9c-0.2,0.5,0.5,0.9,0.8,0.4
		l1.8-3.9C127.4,63.6,126.7,63.2,126.4,63.7 M121.6,73.7l-1.8,3.9c-0.2,0.5,0.5,0.9,0.8,0.4l1.8-3.9
		C122.6,73.6,121.9,73.2,121.6,73.7 M123.8,69.1l-0.7,1.5c-0.2,0.5,0.5,0.9,0.8,0.4l0.7-1.5C124.8,69,124.1,68.6,123.8,69.1
		 M122.4,72.2l-0.1,0.2c-0.2,0.5,0.5,0.9,0.8,0.4l0.1-0.2C123.4,72.1,122.7,71.7,122.4,72.2 M131.1,53.6l-1.8,3.9
		c-0.2,0.5,0.5,0.9,0.8,0.4l1.8-3.9C132.1,53.5,131.4,53.1,131.1,53.6 M128.6,59.1l-0.7,1.5c-0.2,0.5,0.5,0.9,0.8,0.4l0.7-1.5
		C129.6,58.9,128.9,58.5,128.6,59.1 M135.6,74.8l-3.9,5.6c-0.3,0.5,0.4,1,0.7,0.5l3.9-5.6C136.6,74.8,135.9,74.3,135.6,74.8
		 M134.1,96.5l1.2-1.2c0.4-0.4-0.2-1-0.6-0.6l-1.2,1.2C133.1,96.3,133.7,96.9,134.1,96.5 M132.8,97.9l0.1-0.1c0.4-0.4-0.2-1-0.6-0.6
		l-0.1,0.1l-0.1,0C131.7,97.7,132.4,98.3,132.8,97.9 M133.3,49l-0.7,1.5c-0.2,0.5,0.5,0.9,0.8,0.4l0.7-1.5
		C134.3,48.9,133.6,48.5,133.3,49 M131.8,52.1l-0.1,0.2c-0.2,0.5,0.5,0.9,0.8,0.4l0.1-0.2C132.8,52,132.1,51.6,131.8,52.1
		 M135.9,43.6l-1.8,3.9c-0.2,0.5,0.5,0.9,0.8,0.4l1.8-3.9C136.8,43.4,136.2,43.1,135.9,43.6 M117.6,82.3l-0.1,0.2
		c-0.2,0.5,0.5,0.9,0.8,0.4l0.1-0.2C118.6,82.1,117.9,81.7,117.6,82.3 M105.7,82l-1.6,6c-0.1,0.6,0.7,0.7,0.8,0.2l1.6-6
		C106.7,81.6,105.9,81.5,105.7,82 M107.3,76.2l-1.1,4.1c-0.1,0.6,0.7,0.7,0.8,0.2l1.1-4.1C108.3,75.9,107.4,75.7,107.3,76.2
		 M108.1,102.4l-0.1,0.1c-0.2,0.5,0.5,0.9,0.8,0.4l0.1-0.1C109.1,102.2,108.4,101.9,108.1,102.4 M103.7,89.4l-1.6,5.8
		c-0.1,0.6,0.7,0.7,0.8,0.2l1.6-5.8C104.7,89.1,103.9,88.9,103.7,89.4 M101.1,99.3l-1.1,4.1c-0.1,0.6,0.7,0.7,0.8,0.2l1.1-4.1
		C102,99,101.2,98.8,101.1,99.3 M101.6,118.2l1.8-3.9c0.2-0.5-0.5-0.9-0.8-0.4l-1.8,3.9C100.6,118.3,101.3,118.7,101.6,118.2
		 M99.5,105.1l-1.8,6.6c-0.1,0.6,0.7,0.7,0.8,0.2l1.8-6.6C100.5,104.8,99.7,104.6,99.5,105.1 M110,66.3l-1.6,5.8
		c-0.1,0.6,0.7,0.7,0.8,0.2l1.6-5.8C110.9,66,110.1,65.8,110,66.3 M119.1,79.2l-0.7,1.5c-0.2,0.5,0.5,0.9,0.8,0.4l0.7-1.5
		C120.1,79,119.4,78.6,119.1,79.2 M114.3,89.2l-0.7,1.5c-0.2,0.5,0.5,0.9,0.8,0.4l0.7-1.5C115.3,89.1,114.6,88.7,114.3,89.2
		 M116.9,83.8l-1.8,3.9c-0.2,0.5,0.5,0.9,0.8,0.4l1.8-3.9C117.9,83.7,117.2,83.3,116.9,83.8 M111.9,58.9l-1.6,5.9
		c-0.1,0.6,0.7,0.7,0.8,0.2l1.6-5.9C112.9,58.5,112.1,58.3,111.9,58.9 M113.5,53.1l-1.1,4.1c-0.1,0.6,0.7,0.7,0.8,0.2l1.1-4.1
		C114.5,52.7,113.6,52.6,113.5,53.1 M121.2,204.7c0.2,0.5,1,0.2,0.8-0.4l-2.9-6.2c-0.2-0.5-1-0.2-0.8,0.4L121.2,204.7z M114.6,49
		c-0.1,0.6,0.7,0.7,0.8,0.2l1-3.7c-0.3,0.1-0.6,0.2-0.9,0.2L114.6,49z M97.7,209.4l-0.4-4.3c-0.1-0.6-0.9-0.4-0.9,0.1l0.4,4.3
		C97,210.1,97.8,209.9,97.7,209.4 M98.2,52.1c-0.1,0.5,0.8,0.7,0.9,0.1l0.1-0.8c-0.3,0.1-0.6,0.3-0.9,0.4L98.2,52.1z M63.4,80.7
		c0.2,0.5,1,0.2,0.8-0.4l-0.6-1.2c-0.2,0.2-0.4,0.5-0.6,0.7L63.4,80.7z M55.1,103.9c0.4,0.4,1-0.2,0.6-0.6l-4.2-4.2
		c0,0-0.1-0.1-0.1-0.1c-0.1,0.3-0.2,0.5-0.4,0.8L55.1,103.9z M134.2,200.7l-2.5-3.5c-0.3-0.5-1,0-0.7,0.5l2.5,3.5
		C133.8,201.7,134.5,201.2,134.2,200.7 M47.4,109.2c0.4,0.3,1-0.4,0.5-0.7l-0.3-0.2C47.6,108.6,47.5,108.8,47.4,109.2L47.4,109.2z
		 M136.2,73.8c-0.3,0.4,0.4,1,0.7,0.5l1.3-1.9V71L136.2,73.8z M135.2,170.6l3.1,2.2v-1l-2.6-1.8
		C135.2,169.6,134.7,170.2,135.2,170.6 M135.3,160l3,1.4v-0.9l-2.7-1.2C135.1,159,134.8,159.8,135.3,160 M136.4,205.4
		c0.3,0.5,1,0,0.7-0.5l-1-1.4c-0.3-0.5-1,0-0.7,0.5L136.4,205.4z M136.3,107c-0.5,0.3,0,1,0.5,0.7l1.4-1v-1L136.3,107z M138.3,186
		l-1.1-1.1c-0.4-0.4-1,0.2-0.6,0.6l1.7,1.6V186z M135.1,151.4l3.2,0.9v-0.9l-3-0.8C134.8,150.4,134.6,151.3,135.1,151.4 M56.8,91.7
		c0.3,0.5,1,0,0.7-0.5l-1.2-1.7c-0.2,0.3-0.3,0.5-0.5,0.8L56.8,91.7z M135.6,233.9l-0.7-1.5c-0.2-0.5-1-0.2-0.8,0.4l0.6,1.3
		c0.3,0,0.6,0,0.9,0C135.7,234.1,135.7,234,135.6,233.9 M47,118.9c0.5,0.2,0.8-0.6,0.4-0.8l-2.2-1c-0.1,0.3-0.1,0.6-0.2,0.9
		L47,118.9z M70.2,182.8l-0.4,0.8c-0.2,0.5,0.5,0.9,0.8,0.4l0.4-0.8C71.2,182.7,70.5,182.3,70.2,182.8 M73.5,205.3
		c0.1-0.6-0.7-0.7-0.8-0.2l-0.6,2.3c0.2,0.2,0.5,0.5,0.7,0.7L73.5,205.3z M138.3,206.6l-0.2-0.3c-0.3-0.5-1,0-0.7,0.5l0.9,1.3V206.6
		z M136.8,142.6c-0.5-0.1-0.7,0.8-0.1,0.9l1.5,0.1v-0.9L136.8,142.6z M84.5,217.5c0-0.4-0.3-0.5-0.6-0.4
		C84.1,217.2,84.3,217.4,84.5,217.5L84.5,217.5z M50.3,168.2c0.5-0.3,0-1-0.5-0.7l-2.1,1.5c0.1,0.3,0.2,0.6,0.3,0.8L50.3,168.2z
		 M65.5,194.8c0.2-0.5-0.5-0.9-0.8-0.4l-1.5,3.2c0.2,0.2,0.4,0.5,0.6,0.7L65.5,194.8z M48.1,151.3c0.5-0.1,0.3-1-0.2-0.8l-4.2,1.1
		c0,0.3,0.1,0.6,0.1,0.9L48.1,151.3z M46.9,160.5c0.5-0.2,0.2-1-0.4-0.8l-1.3,0.6c0.1,0.3,0.1,0.6,0.2,0.8L46.9,160.5z M52.9,177.8
		c0.4-0.4-0.2-1-0.6-0.6l-0.9,0.9c0.1,0.3,0.3,0.6,0.4,0.8L52.9,177.8z M57.8,187.3c0.3-0.5-0.4-1-0.7-0.5l-0.7,0.9
		c0.2,0.3,0.3,0.5,0.5,0.8L57.8,187.3z M136.4,43c0.2,0.2,0.5,0.2,0.7,0C136.8,43,136.6,43,136.4,43 M104.5,190.4
		c0.1,0.5,1,0.3,0.8-0.2l-0.4-1.7c-0.1-0.5-1-0.3-0.8,0.2L104.5,190.4z M106,196.2c0.1,0.5,1,0.3,0.8-0.2l-1.1-4.1
		c-0.1-0.5-1-0.3-0.8,0.2L106,196.2z M103.6,187.1c0.1,0.5,1,0.3,0.8-0.2l-0.1-0.4c-0.1-0.5-1-0.3-0.8,0.2L103.6,187.1z
		 M103.1,185.4c0.1,0.5,1,0.3,0.8-0.2l-1.1-4.1c-0.1-0.5-1-0.3-0.8,0.2L103.1,185.4z M106.5,197.8c0.1,0.5,1,0.3,0.8-0.2l-0.1-0.4
		c-0.1-0.5-1-0.3-0.8,0.2L106.5,197.8z M107.3,201.1c0.1,0.5,1,0.3,0.8-0.2l-0.4-1.7c-0.1-0.5-1-0.3-0.8,0.2L107.3,201.1z
		 M108.9,206.9c0.1,0.5,1,0.3,0.8-0.2l-1.1-4.1c-0.1-0.5-1-0.3-0.8,0.2L108.9,206.9z M101.6,179.7c0.1,0.5,1,0.3,0.8-0.2l-0.4-1.7
		c-0.1-0.5-1-0.3-0.8,0.2L101.6,179.7z M132.8,229.7c0.2,0.5,1,0.2,0.8-0.4l-0.7-1.5c-0.2-0.5-1-0.2-0.8,0.4L132.8,229.7z
		 M99.5,168.7l-0.4-1.7c-0.1-0.5-1-0.3-0.8,0.2l0.4,1.7C98.8,169.5,99.7,169.3,99.5,168.7 M99.1,224.8l-0.4-4.8
		c-0.1-0.6-0.9-0.4-0.9,0.1l0.4,4.8C98.3,225.4,99.2,225.3,99.1,224.8 M100.7,176.4c0.1,0.5,1,0.3,0.8-0.2l-0.1-0.2
		c-0.1-0.5-1-0.3-0.8,0.2L100.7,176.4z M100.2,174.7c0.1,0.5,1,0.3,0.8-0.2l-1.1-4.1c-0.1-0.5-1-0.3-0.8,0.2L100.2,174.7z
		 M98.5,217.9l-0.6-6.8c-0.1-0.6-0.9-0.4-0.9,0.1l0.6,6.8C97.7,218.6,98.6,218.5,98.5,217.9 M124.1,210.9c0.2,0.5,1,0.2,0.8-0.4
		l-2.2-4.6c-0.2-0.5-1-0.2-0.8,0.4L124.1,210.9z M118.4,196.6l-1.8-3.9c-0.2-0.5-1-0.2-0.8,0.4l1.8,3.9
		C117.8,197.4,118.6,197.1,118.4,196.6 M127.8,191.6l-2.5-3.5c-0.3-0.5-1,0-0.7,0.5l2.5,3.5C127.4,192.6,128.1,192,127.8,191.6
		 M135.3,107.6l-5.6,3.9c-0.5,0.3,0,1,0.5,0.7l5.6-3.9C136.3,108,135.8,107.3,135.3,107.6 M131.3,226.4c0.2,0.5,1,0.2,0.8-0.4
		l-2.9-6.2c-0.2-0.5-1-0.2-0.8,0.4L131.3,226.4z M127.7,218.6c0.2,0.5,1,0.2,0.8-0.4l-1.8-3.9c-0.2-0.5-1-0.2-0.8,0.4L127.7,218.6z
		 M109.3,208.6c0.1,0.5,1,0.3,0.8-0.2l-0.1-0.3c-0.1-0.5-1-0.3-0.8,0.2L109.3,208.6z M112.2,219.3c0.1,0.5,1,0.3,0.8-0.2l-0.1-0.3
		c-0.1-0.5-1-0.3-0.8,0.2L112.2,219.3z M111.8,217.7c0.1,0.5,1,0.3,0.8-0.2l-1.1-4.1c-0.1-0.5-1-0.3-0.8,0.2L111.8,217.7z
		 M110.2,211.9c0.1,0.5,1,0.3,0.8-0.2l-0.4-1.7c-0.1-0.5-1-0.3-0.8,0.2L110.2,211.9z M114.7,228.4c0.1,0.5,1,0.3,0.8-0.2l-1.1-4.1
		c-0.1-0.5-1-0.3-0.8,0.2L114.7,228.4z M113.1,222.6c0.1,0.5,1,0.3,0.8-0.2l-0.4-1.7c-0.1-0.5-1-0.3-0.8,0.2L113.1,222.6z
		 M115.1,230c0.1,0.5,1,0.3,0.8-0.2l0-0.1c-0.1-0.5-1-0.3-0.8,0.2L115.1,230z M96.3,74.3c-0.1,0.5,0.8,0.7,0.9,0.1l0.1-0.9
		c0.1-0.5-0.8-0.7-0.9-0.1L96.3,74.3z M111.2,118.3l-1.2,1.2c-0.4,0.4,0.2,1,0.6,0.6l1.2-1.2C112.2,118.5,111.6,117.9,111.2,118.3
		 M115.7,121.4l-5.6,3.9c-0.5,0.3,0,1,0.5,0.7l5.6-3.9C116.7,121.7,116.2,121,115.7,121.4 M104.2,136.3l6.6-1.8
		c0.5-0.1,0.3-1-0.2-0.8l-6.6,1.8C103.5,135.6,103.7,136.4,104.2,136.3 M107.5,121.9l-3,3c-0.4,0.4,0.2,1,0.6,0.6l3-3
		C108.5,122.2,107.9,121.5,107.5,121.9 M108.7,120.7l-0.6,0.6c-0.4,0.4,0.2,1,0.6,0.6l0.6-0.6C109.7,120.9,109.1,120.3,108.7,120.7
		 M108.7,126.3l-3.5,2.5c-0.5,0.3,0,1,0.5,0.7l3.5-2.5C109.7,126.6,109.2,125.9,108.7,126.3 M116.6,112.9l-0.6,0.6
		c-0.4,0.4,0.2,1,0.6,0.6l0.6-0.6C117.6,113.1,117,112.5,116.6,112.9 M108.4,131.8l0.8-0.4c0.5-0.2,0.2-1-0.4-0.8L108,131
		C107.5,131.2,107.8,132,108.4,131.8 M119,126.9l0.3-0.2c0.5-0.2,0.2-1-0.4-0.8l-0.3,0.1C118.1,126.3,118.4,127.1,119,126.9
		 M118,136.7l-4.3,0.4c-0.6,0.1-0.4,0.9,0.1,0.9l4.3-0.4C118.7,137.4,118.6,136.6,118,136.7 M105,145l-3.9-1.8
		c-0.5-0.2-0.8,0.6-0.4,0.8l3.9,1.8C105.2,146,105.5,145.2,105,145 M110.3,144.8l1.7,0.4c0.6,0.1,0.7-0.7,0.2-0.8l-1.7-0.4
		C110,143.8,109.8,144.6,110.3,144.8 M123.2,106.2l-3,3c-0.4,0.4,0.2,1,0.6,0.6l3-3C124.3,106.4,123.6,105.8,123.2,106.2 M117.8,121
		l4-2.9c0.5-0.3,0-1-0.5-0.7l-4,2.9C116.8,120.7,117.3,121.4,117.8,121 M137.5,117.3l-3.9,1.8c-0.5,0.2-0.2,1,0.4,0.8l3.9-1.8
		C138.3,117.9,138,117.1,137.5,117.3 M98.8,150.3l-1-1.4c-0.3-0.5-1,0-0.7,0.5l1,1.4C98.5,151.2,99.2,150.7,98.8,150.3 M97.4,153.5
		c0.2,0.5,1,0.2,0.8-0.4l-1.8-3.9c-0.2-0.5-1-0.2-0.8,0.4L97.4,153.5z M95.7,147.3l0.5,0.7c0.3,0.5,1,0,0.7-0.5l-0.5-0.7
		C96.1,146.3,95.4,146.8,95.7,147.3 M95.2,146.6c0.3,0.5,1,0,0.7-0.5l-2.5-3.5c-0.3-0.5-1,0-0.7,0.5L95.2,146.6z M102.7,146.8
		l-3.5-2.5c-0.4-0.3-1,0.4-0.5,0.7l3.5,2.5C102.7,147.8,103.2,147.2,102.7,146.8 M103.6,148.5c0.5,0.3,1-0.4,0.5-0.7l-0.7-0.5
		c-0.5-0.3-1,0.4-0.5,0.7L103.6,148.5z M99.7,129.8l-3,3c-0.4,0.4,0.2,1,0.6,0.6l3-3C100.7,130,100.1,129.4,99.7,129.8 M92,140.8
		l3,3c0.4,0.4,1-0.2,0.6-0.6l-3-3C92.2,139.8,91.6,140.4,92,140.8 M100.9,128.6l-0.6,0.6c-0.4,0.4,0.2,1,0.6,0.6l0.6-0.6
		C101.9,128.8,101.3,128.2,100.9,128.6 M103.3,126.2l-1.2,1.2c-0.4,0.4,0.2,1,0.6,0.6l1.2-1.2C104.3,126.4,103.7,125.8,103.3,126.2
		 M101.7,131.2l-4.9,3.4c-0.5,0.3,0,1,0.5,0.7l4.9-3.4C102.7,131.5,102.1,130.8,101.7,131.2 M93.7,138.7l3.9-1.8
		c0.5-0.2,0.2-1-0.4-0.8l-3.9,1.8C92.8,138.1,93.1,138.9,93.7,138.7 M103.7,134l3.9-1.8c0.5-0.2,0.2-1-0.4-0.8l-3.9,1.8
		C102.9,133.4,103.2,134.2,103.7,134 M120.8,126l1.5-0.7c0.5-0.2,0.2-1-0.4-0.8l-1.5,0.7C119.9,125.5,120.2,126.3,120.8,126
		 M118.1,141l-6-0.5c-0.5-0.1-0.7,0.8-0.1,0.9l6,0.5C118.6,141.9,118.7,141,118.1,141 M113.8,144.8c-0.6-0.1-0.7,0.7-0.2,0.8
		l4.1,1.1c0.6,0.1,0.7-0.7,0.2-0.8L113.8,144.8z M110.5,138.2l1.7-0.1c0.6-0.1,0.4-0.9-0.1-0.9l-1.7,0.1
		C109.8,137.4,109.9,138.2,110.5,138.2 M98.5,137.8l4.1-1.1c0.5-0.1,0.3-1-0.2-0.8l-4.1,1.1C97.7,137.1,97.9,137.9,98.5,137.8
		 M119.8,136.5l-0.9,0.1c-0.6,0.1-0.4,0.9,0.1,0.9l0.9-0.1C120.4,137.3,120.3,136.4,119.8,136.5 M100.6,135.4l1.5-0.7
		c0.5-0.2,0.2-1-0.4-0.8l-1.6,0.7C99.8,134.9,100.1,135.7,100.6,135.4 M99.8,141.1c-0.6-0.1-0.7,0.7-0.2,0.8l1.7,0.4
		c0.6,0.1,0.7-0.7,0.2-0.8L99.8,141.1z M124.9,105.8l0.2-0.2c0.4-0.4-0.2-1-0.6-0.6l-0.2,0.2C123.9,105.6,124.5,106.2,124.9,105.8
		 M121.5,136.4c-0.6,0.1-0.4,0.9,0.1,0.9l1.7-0.1c0.6-0.1,0.4-0.9-0.1-0.9L121.5,136.4z M95.6,133.4l3.4-4.9c0.3-0.5-0.4-1-0.7-0.5
		l-3.4,4.9C94.6,133.4,95.3,133.9,95.6,133.4 M98.7,124.4c0.2-0.5-0.5-0.9-0.8-0.4l-1.8,3.9c-0.2,0.5,0.5,0.9,0.8,0.4L98.7,124.4z
		 M125.5,129.7l-4.1,1.1c-0.5,0.1-0.3,1,0.2,0.8l4.1-1.1C126.3,130.4,126.1,129.5,125.5,129.7 M123.9,105.6l0.4-0.4c0,0,0,0,0,0
		L123.9,105.6z M119.6,146.4l-0.2-0.1c-0.6-0.1-0.7,0.7-0.3,0.8l0.3,0.1C120,147.3,120.2,146.5,119.6,146.4 M108.8,138.3
		c0.6-0.1,0.4-0.9-0.1-0.9l-0.9,0.1c-0.6,0.1-0.4,0.9,0.1,0.9L108.8,138.3z M111.7,134.3l5.8-1.5c0.5-0.1,0.3-1-0.2-0.8l-5.8,1.5
		C110.9,133.6,111.1,134.4,111.7,134.3 M111.3,140.4l-6.8-0.6c-0.5-0.1-0.7,0.8-0.1,0.9l6.8,0.6
		C111.8,141.3,111.9,140.4,111.3,140.4 M111.9,129.2l-1.5,0.7c-0.5,0.2-0.2,1,0.4,0.8l1.6-0.7C112.7,129.8,112.4,129,111.9,129.2
		 M107.8,144.1l0.8,0.2c0.6,0.1,0.7-0.7,0.2-0.8l-0.8-0.2C107.5,143.1,107.3,144,107.8,144.1 M113.8,129.3l3.9-1.8
		c0.5-0.2,0.2-1-0.4-0.8l-3.9,1.8C113,128.7,113.3,129.5,113.8,129.3 M99.3,138.3c-0.6,0.1-0.4,0.9,0.1,0.9l1.7-0.1
		c0.6-0.1,0.4-0.9-0.1-0.9L99.3,138.3z M96.8,138.5c-0.6,0.1-0.4,0.9,0.1,0.9l0.9-0.1c0.6-0.1,0.4-0.9-0.1-0.9L96.8,138.5z
		 M98.7,135.4l-0.8,0.4c-0.5,0.2-0.2,1,0.4,0.8l0.8-0.4C99.6,135.9,99.3,135.1,98.7,135.4 M102.9,142.8l4.1,1.1
		c0.6,0.1,0.7-0.7,0.2-0.8l-4.1-1.1C102.5,141.8,102.4,142.6,102.9,142.8 M102.8,138.8l4.3-0.4c0.6-0.1,0.4-0.9-0.1-0.9l-4.3,0.4
		C102.1,138.1,102.3,138.9,102.8,138.8 M95.9,143.1l1.4,1c0.5,0.3,1-0.4,0.5-0.7l-1.4-1C96,142.1,95.5,142.8,95.9,143.1 M98.2,140.6
		l-0.8-0.2c-0.6-0.1-0.7,0.7-0.2,0.8l0.8,0.2C98.5,141.6,98.7,140.7,98.2,140.6 M127.4,122l-3.9,1.8c-0.5,0.2-0.2,1,0.4,0.8l3.9-1.8
		C128.2,122.6,127.9,121.8,127.4,122 M103.9,167.5c0.2,0.5,1,0.2,0.8-0.4l-2.5-5.4c-0.2-0.5-1-0.2-0.8,0.4L103.9,167.5z
		 M101.7,160.9l-2.9-6.2c-0.2-0.5-1-0.2-0.8,0.4l2.9,6.2C101.2,161.8,102,161.5,101.7,160.9 M97.4,164c0.1,0.5,1,0.3,0.8-0.2
		l-1.1-4.1c-0.1-0.5-1-0.3-0.8,0.2L97.4,164z M97.8,165.6c0.1,0.5,1,0.3,0.8-0.2l-0.1-0.2c-0.1-0.5-1-0.3-0.8,0.2L97.8,165.6z
		 M108,164.8c0.3,0.5,1,0,0.7-0.5l-2.5-3.5c-0.3-0.5-1,0-0.7,0.5L108,164.8z M93.3,128.2l-1.8,6.6c-0.1,0.6,0.7,0.7,0.8,0.2l1.8-6.6
		C94.3,127.9,93.4,127.7,93.3,128.2 M105.2,159.4l-1-1.4c-0.3-0.5-1,0-0.7,0.5l1,1.4C104.9,160.3,105.5,159.8,105.2,159.4
		 M94.9,154.9c0.1,0.5,1,0.3,0.8-0.2l-0.2-0.8c-0.1-0.5-1-0.3-0.8,0.2L94.9,154.9z M92,144.1c0.1,0.5,1,0.3,0.8-0.2l-0.2-0.8
		c-0.1-0.5-1-0.3-0.8,0.2L92,144.1z M92.1,138.3l1.8-3.9c0.2-0.5-0.5-0.9-0.8-0.4l-1.8,3.9C91.2,138.4,91.9,138.8,92.1,138.3
		 M95.8,158.2c0.1,0.5,1,0.3,0.8-0.2l-0.4-1.7c-0.1-0.5-1-0.3-0.8,0.2L95.8,158.2z M92.9,147.5c0.1,0.5,1,0.3,0.8-0.2l-0.4-1.7
		c-0.1-0.5-1-0.3-0.8,0.2L92.9,147.5z M94.5,153.2c0.1,0.5,1,0.3,0.8-0.2l-1.1-4.1c-0.1-0.5-1-0.3-0.8,0.2L94.5,153.2z M107.5,175.2
		c0.2,0.5,1,0.2,0.8-0.4l-1.8-3.9c-0.2-0.5-1-0.2-0.8,0.4L107.5,175.2z M106.5,154.1l-4.2-4.2c-0.4-0.4-1,0.2-0.6,0.6l4.2,4.2
		C106.3,155.1,106.9,154.5,106.5,154.1 M133.5,151c0.6,0.1,0.7-0.7,0.2-0.8l-1.7-0.4c-0.6-0.1-0.7,0.7-0.2,0.8L133.5,151z
		 M130.1,150.1c0.6,0.1,0.7-0.7,0.2-0.8l-0.2-0.1c-0.6-0.1-0.7,0.7-0.2,0.8L130.1,150.1z M130.1,166l-3.5-2.5
		c-0.4-0.3-1,0.4-0.5,0.7l3.5,2.5C130,167,130.5,166.3,130.1,166 M135.2,142.5l-6.8-0.6c-0.5-0.1-0.7,0.8-0.1,0.9l6.8,0.6
		C135.6,143.4,135.8,142.5,135.2,142.5 M130,196.3c0.3,0.5,1,0,0.7-0.5l-1-1.4c-0.3-0.5-1,0-0.7,0.5L130,196.3z M138.3,117.7v-0.8
		l0,0C137.9,117.1,138,117.6,138.3,117.7 M126.7,155.1l-3.9-1.8c-0.5-0.2-0.8,0.6-0.4,0.8l3.9,1.8
		C126.9,156.1,127.2,155.3,126.7,155.1 M111.1,183c0.2,0.5,1,0.2,0.8-0.4l-2.9-6.2c-0.2-0.5-1-0.2-0.8,0.4L111.1,183z M114,189.2
		c0.2,0.5,1,0.2,0.8-0.4l-2.5-5.4c-0.2-0.5-1-0.2-0.8,0.4L114,189.2z M120.7,183c0.3,0.5,1,0,0.7-0.5L119,179c-0.3-0.5-1,0-0.7,0.5
		L120.7,183z M115,173.4l-2.5-3.5c-0.3-0.5-1,0-0.7,0.5l2.5,3.5C114.7,174.3,115.4,173.8,115,173.4 M123.6,187.2
		c0.3,0.5,1,0,0.7-0.5l-1-1.4c-0.3-0.5-1,0-0.7,0.5L123.6,187.2z M125.1,162.5l-1.4-1c-0.5-0.3-1,0.4-0.5,0.7l1.4,1
		C125.1,163.5,125.6,162.9,125.1,162.5 M104.9,109.3l-0.7,1.5c-0.2,0.5,0.5,0.9,0.8,0.4l0.7-1.5
		C105.9,109.2,105.2,108.8,104.9,109.3 M128.9,121.3l-0.1,0.1c-0.5,0.2-0.2,1,0.4,0.8l0.1-0.1C129.8,121.8,129.5,121,128.9,121.3
		 M126.9,102.6l-1.2,1.2c-0.4,0.4,0.2,1,0.6,0.6l1.2-1.2C127.9,102.8,127.3,102.2,126.9,102.6 M125.3,115.7l3.5-2.5
		c0.5-0.3,0-1-0.5-0.7l-3.5,2.5C124.3,115.3,124.9,116,125.3,115.7 M121.9,94.4L118,100c-0.3,0.4,0.4,1,0.7,0.5l3.9-5.6
		C122.9,94.4,122.2,93.9,121.9,94.4 M117,101.4l-2.5,3.5c-0.3,0.5,0.4,1,0.7,0.5l2.5-3.5C118,101.4,117.3,100.9,117,101.4
		 M113,117.7l3-3c0.4-0.4-0.2-1-0.6-0.6l-3,3C112,117.5,112.6,118.1,113,117.7 M118.4,112.3l1.2-1.2c0.4-0.4-0.2-1-0.6-0.6l-1.2,1.2
		C117.4,112.1,118,112.7,118.4,112.3 M108.9,166.1l0.1,0.1c0.3,0.5,1,0,0.7-0.5l-0.5-0.7l0.4,0.6
		C109.2,165.1,108.5,165.6,108.9,166.1 M111.3,153.9c0.4,0.3,1-0.4,0.5-0.7l-3.5-2.5c-0.4-0.3-1,0.4-0.5,0.7L111.3,153.9z
		 M112.8,148.6l-6.2-2.9c-0.5-0.2-0.8,0.6-0.4,0.8l6.2,2.9C113,149.6,113.3,148.8,112.8,148.6 M113.2,154.2l-0.7-0.5
		c-0.5-0.3-1,0.4-0.5,0.7l0.7,0.5C113.2,155.2,113.7,154.5,113.2,154.2 M120.5,160.3c0.4,0.3,1-0.4,0.5-0.7l-3.5-2.5
		c-0.5-0.3-1,0.4-0.5,0.7L120.5,160.3z M129.1,135.7l-4.3,0.4c-0.6,0.1-0.4,0.9,0.1,0.9l4.3-0.4
		C129.8,136.5,129.6,135.6,129.1,135.7 M107.4,103.9l-1.8,3.9c-0.2,0.5,0.5,0.9,0.8,0.4l1.8-3.9
		C108.4,103.8,107.7,103.4,107.4,103.9 M100.1,119.4l-0.7,1.5c-0.2,0.5,0.5,0.9,0.8,0.4l0.7-1.5
		C101.1,119.2,100.4,118.9,100.1,119.4 M100.8,124.5c-0.3,0.5,0.4,1,0.7,0.5l2.5-3.5c0.3-0.5-0.4-1-0.7-0.5L100.8,124.5z
		 M112.9,92.3L112.9,92.3c-0.3,0.6,0.4,1,0.7,0.5l0.1-0.1C113.9,92.2,113.2,91.8,112.9,92.3 M98.7,122.5l-0.4,0.8
		c-0.2,0.5,0.5,0.9,0.8,0.4l0.4-0.8C99.7,122.3,99,122,98.7,122.5 M97.5,112.6l-1.6,5.8c-0.1,0.6,0.7,0.7,0.8,0.2l1.6-5.8
		C98.5,112.2,97.7,112,97.5,112.6 M95.4,129.4l-0.7,1.5c-0.2,0.5,0.5,0.9,0.8,0.4l0.7-1.5C96.4,129.3,95.7,128.9,95.4,129.4
		 M103.4,112.4l-0.4,0.8c-0.2,0.5,0.5,0.9,0.8,0.4l0.4-0.8C104.4,112.3,103.7,111.9,103.4,112.4 M109.6,99.3l-0.7,1.5
		c-0.2,0.5,0.5,0.9,0.8,0.4l0.7-1.5C110.6,99.1,109.9,98.8,109.6,99.3 M106.4,150.5c0.4,0.3,1-0.4,0.5-0.7l-1.4-1
		c-0.5-0.3-1,0.4-0.5,0.7L106.4,150.5z M112.2,93.9l-1.8,3.9c-0.2,0.5,0.5,0.9,0.8,0.4l1.8-3.9C113.1,93.7,112.5,93.3,112.2,93.9
		 M109.3,113.8l3.4-4.9c0.3-0.5-0.4-1-0.7-0.5l-3.4,4.9C108.3,113.7,109,114.3,109.3,113.8 M94.9,122.5l-1.1,4.1
		c-0.1,0.6,0.7,0.7,0.8,0.2l1.1-4.1C95.8,122.1,95,121.9,94.9,122.5 M108.1,114l-3.9,5.6c-0.3,0.5,0.4,1,0.7,0.5l3.9-5.6
		C109.2,114,108.5,113.5,108.1,114"/>
	<g id="SOL">
		<path id="EXT_SOL" fill-rule="evenodd" clip-rule="evenodd" fill="#08255A" d="M63.1,172.8c0.2-0.9,0.5-2.4,0.7-2.9
			c0.4-1.3,0.7-2.5,1.4-3.6c1.2-1.8,2.3-4,2.6-6.2c0.1-0.6,0.4-2.2,0.7-3c0.2-0.6,0.6-1.4,0.7-1.9c0.1-0.6,0.7-1.2,1-1.7
			c0.5-0.7,0.8-1.1,0.1-1.7c-0.7-0.2-1-0.1-2.3-0.2c-0.6-0.2-0.9-0.1-1.1-0.4c-0.3-0.4,0.1-0.8,0.1-1.2c0-0.4,0.1-0.8,0.3-1.4
			c0.1-0.4,0.5-0.8,0.4-1.3c-0.1-0.7-2.1-0.8-2.5-1.1c-0.1-0.1-0.8-0.3-1.6-0.6c-0.9-0.4-1.5-0.6-2.1-0.8c-2-0.8-3.7-0.7-5.9-0.3
			c-1,0.2-2.4,0.4-3.4,0.2c-0.5-0.1-1.2-0.1-1.6-0.3c-0.4-0.1-0.7-0.3-1.1-0.4c-1.3-0.5-2.8-0.6-4-1.5c0.2-0.4,1.1-1,1.4-1.2
			c0.6-0.3,1-1,1.5-1.4c0.3-0.3,0.8-0.6,1-0.9c0.4-0.4,1.1-0.6,1.7-1c3.1-2.1,6.7-0.9,10-1.9c1.7-0.5,3.5-1.2,5.2-1.9
			c2.8-0.4-1-2.6-0.5-3.3c0.8-1.1,1.8-1.6,2.9-2.3c0.1-0.2-0.7-0.9-0.8-1.1c-0.5-1-0.4-2-1-2.9c-0.7-1.1-1.6-2-2.7-2.5
			c-0.3-0.2-0.8-0.3-1.1-0.5c-0.4-0.3-0.6-0.3-0.9-0.5c-0.4-0.4-0.9-1-1.5-1.3c-0.3-0.2-0.9-0.8-1.2-1.2c-0.2-0.3-0.5-0.5-0.8-1
			c-0.3-0.5-0.4-0.9-0.8-1.2c-0.2-0.4-0.8-1.1-0.8-1.6c0-0.9-1-2-1.5-2.6c-0.3-0.4-1-0.8-0.7-1.4c0.1-0.4,1.5-0.6,1.7-0.5
			c0.6,0.1,1.2,0.2,1.8,0.3c0.4,0.1,0.8,0.2,1.2,0.3c0.2,0,0.7,0.1,1.1,0.1c0.4,0,1-0.1,1.6,0.1c0.4,0.1,1.7,0.5,2.2,0.6
			c0-0.1,0.9,0.1,1,0.2c0.6,0.2,1.2,0.5,1.7,0.8c1.2,0.6,2.2,1.4,3.3,2.2c1,0.8,1.7,1.7,2.6,2.5c0.2,0.2,2.5,1.8,2.5,1.5
			c0,0.1,0.2-0.5,0.1-0.2c0.1-0.3,0.2-0.5,0.3-0.7c0.2-0.6,0.3-0.9,0.5-1.4c0.1-0.4,0.1-1.3,0.6-1.5c0.6-0.3,1.8,0.1,2.4,0.1
			c1.2,0,0.6-0.7,0.6-1.6c-0.2-0.7,0.2-1.9,0.5-2.5c0.2-0.6,1-1.9,1.2-2.5c0,0,0.9-1.8,1-1.9c0,0,0.6-3.1,0.7-3.4
			c0.4-1.8-0.3-4-0.3-5.8c0-0.8,0.3-1.5,0.3-2.3c0-0.7,0.7-1.6,1.4-0.9c0.3,0.2,0.1,0.6,0.4,0.8c0.3,0.3,0.4,0.5,0.4,0.5
			c0.1,0.4,0.7,1.2,1,1.4c0,0,0.4,0.3,0.6,0.5c0.2,0.3,0.6,1.1,1.2,1.9c0.3,0.3,0.5,0.5,0.6,0.6c0.5,0.6,1,1.1,1.4,1.8
			c1.1,1.8,1.4,3.4,1.9,5.4c0.2,0.7,0.2,1.5,0.4,2.3c0.2,1,0.3,1.8,0.1,2.9c0.1,0.7,0,1.2,0.1,1.8c0.1,1,1.7,0.1,2.1-0.2
			c0.6-0.5,1.3-0.7,2-1.1c0.4-0.2,1.2-1.1,1.7-0.8c0.3,0.2,0.6,1.4,0.7,1.7c0.3,0.7,0.9,2.7,1.7,2.8c1.7,0.2,3.1-1.1,4.2-2.3
			c1.2-1.3,2.2-2.8,3.3-4.1c1.7-2.1,4.2-3.6,6.6-5c0.4-0.3,3.9-3,3.5-1.2c-0.3,1.3-1,2.3-1.4,3.6c-0.1,0.3-0.3,0.7-0.5,1.3
			c-0.3,0.6-0.5,1.1-0.7,1.5c-0.2,0.3,0,0.7,0,1c-0.1,0.4-0.2,0.7-0.4,1.1c-0.4,0.8-0.6,1.6-0.8,2.5c-0.3,1.4-1.3,3-2,4.2
			c-0.5,0.8-1.1,1.6-1.7,2.3c-0.2,0.7-1.5,1,0,1.1c0.8,0.1,1.5,0.4,2.2,0.4c0.5,0,1.8,0,1.4,0.7c-0.4,0.7-0.9,1.4-0.9,2.2
			c-0.2,0.7-0.1,1.5-0.2,2.2c-0.3,1.8,1.1,1.9,2.6,2.3c2.3,0.6,4.1,0.3,6.4-0.2c1-0.3,2-0.5,3-0.6c1.1-0.1,1.8,0.2,2.8,0.5
			c1.5,0.5,2.6,1.1,4.1,1.9c1.2,0.7,2.5,1.1,4,1c0.2,0.1,0.6-0.3,0.7,0c0.5,0.4-0.1,0.7-0.3,0.9c-0.5,0.3-1,0.3-1.6,0.6
			c-1.9,1-3.6,1.9-5.7,2.5c-1.4,0.4-2.8,0.6-4.1,1.3c-1.1,0.6-2.7,1.4-3.9,2.3c-1.4,0.5-2.8,1.3-4.3,1.4c-1.9,0.2,1.1,2.8-0.4,3.7
			c-0.6,0.4-1.5,0.3-2.1,0.7c-0.6,0.4-1.2,0.7-1.8,1c-0.5,0.3-1.4,0.2-1,0.9c0.5,0.8,1.2,1.5,1.9,2.1c2.3,1.8,5.8,2.6,7.1,5.5
			c0.8,1.8,1.3,3.6,2.1,5.4c0.4,0.8,0.7,1.7,1.2,2.5c0.2,0.3,0.5,0.6,0.8,0.9c0.2,0.2,0.3,0.4,0.5,0.6c0.2,0.2,0.2,0.2,0.4,0.3
			c0.3,0.3,0.7,0.7,0.5,1.2c-0.3,0.7-1.3,0.1-1.7,0c-0.8-0.2-1.6-0.1-2.4-0.3c-0.8-0.2-2.1-0.3-2.8-0.8c-0.2-0.2-2.3-1.2-2.5-1.2
			c0,0-1.4-0.7-1.5-0.8c-0.5-0.3-1.1-0.8-1.8-1.3c-0.5-0.4-1.2-0.8-1.7-1.1c-0.6-0.3-1.3-0.3-2-0.4c-0.9-0.2-1.3-0.4-2.5-1
			c-0.5,0-1.5-0.4-1.8-0.6c-0.6-0.3-1-0.7-1.1,0.2c-0.1,0.5-0.4,1-0.5,1.6c-0.3,0.7-0.3,1.3-1.1,1.5c-0.7,0.2-1.9-0.3-2.5-0.4
			c-0.6-0.1-1.6-0.8-1.5,0.1c0.1,0.9,0.3,1.7,0.5,2.6c0.2,0.9,0.5,1.7,0.6,2.6c0.1,1.1-0.2,2.1-0.2,3.2c-0.1,3.5-2.4,6.3-3.1,9.7
			c-0.3,1.6-0.6,3.2-0.4,4.8c0.1,0.6-0.9,1.2-1,0.4c0-0.8-0.4-1.4-0.7-2.1c-0.4-0.5-0.8-1.2-1-1.7c-0.3-0.6-0.8-0.9-1.1-1.6
			c-0.4-1-1.2-1.8-1.6-2.8c-0.7-1.5-0.6-3.3-0.9-4.9c-0.2-0.8-0.3-1.7-0.5-2.6c-0.2-1-0.9-1.8-1.2-2.8c-0.2-0.8-0.5-1.7-0.5-2.5
			c0-0.4,0.1-2-0.4-2.1c-1,0.3-2,2.3-2.9,1.3c-0.5-0.5-0.7-1.1-1.2-1.6c-0.1-0.1-0.7-0.7-0.9-0.9c-0.5-0.6-0.7-2.2-1.7-1
			c-0.7,0.9-1.8,1-2.6,1.8c-0.2,0.2-0.6,0.4-0.8,0.7c-0.2,0.3-0.3,0.6-0.5,0.9c-0.3,0.7-0.8,1.1-1.2,2.1c-0.9,1.1-1.6,2.2-2.6,3
			c-1,0.8-2.1,1.5-3.3,1.9c-1.1,0.4-2.1,0.7-3.2,1.2c-1.1,0.5-1.6,1.6-2.7,2.2c-0.2,0.1-1.5,1.1-1.3,0.1
			C62.7,174.3,63.1,172.7,63.1,172.8"/>
		<path id="INT_SOL" fill-rule="evenodd" clip-rule="evenodd" fill="#F4D04E" d="M64.9,170c0.5-1.4,0.7-2.2,1.4-3.5
			c0.9-1.5,1.7-3,2.4-4.6c0.7-1.7,1.1-3.4,1.5-5.3c0.2-0.4,0.5-1,0.6-1.3c0.4-0.6,0.5-1.1,1.1-2.1c0.5-1,2-2.3,2.5-2.6
			c0.6-0.4,1.2-0.7,1.8-1.1c0.4-0.2,0.7-0.8,1.1-0.9c0.9-0.3,2.3-2.1,2.8-3c0.5-0.8,0.3-1.3-0.6-1.6c-1.1-0.3-2.1-0.6-3.2-0.7
			c-2.1-0.1-4.1,0.3-6.1,0.8c-2.1,0.4-3.4,0.7-5.4,0c-1.1-0.3-2.8-1.1-4.3-1.4c-0.8-0.2-1.5-0.3-2.6-0.4c-1.8,0.2-3.6,0.4-5.4,0.3
			c-0.9,0-1.7,0-2.6-0.3c-0.5-0.1-0.9-0.3-1.4-0.5c-0.6-0.3,0.2-0.8,0.3-0.9c0.9-0.8,1.7-1,2.5-1.7c0.3-0.2,0.6-0.4,1-0.6
			c0.3-0.1,0.7-0.1,1-0.3c0.7-0.3,1.2-0.7,2.1-0.6c3,0.3,6.1,0.2,8.9-1.3c0.6-0.3,1.3-0.4,1.9-0.7c0.4-0.2,0.6-0.3,1.1-0.4
			c0.5-0.2,0.6-0.2,0.9-0.3c0.9-0.1,1.5-0.5,2.4-0.4c0.5,0,1,0,1.5-0.1c0.4-0.1,1.3,0.1,1.6-0.1c1-0.5,2.8,0.4,3.9,0.5
			c0.6,0.1,1.9,0.2,1.9-0.8c0-0.5-1.8-1.9-2.2-2.3c-1.5-1-2.8-2.2-4.4-3.2c-0.7-0.4-1.3-0.9-1.9-1.5c-0.3-0.3-1.3-1.5-1.4-1.7
			c-0.2-0.7-0.3-1-0.6-1.5c0,0-0.5-0.9-0.5-1c-0.3-0.3-0.7-0.8-0.9-1c0,0-1.6-1.9-2.1-2.2c-1.1-0.7-1.1-0.5-2.3-1.4
			c0,0.1-0.9-0.6-0.9-0.6c-0.2-0.1-0.5-0.3-0.9-0.8c0.2,0.2-0.1-0.1-0.6-0.6c-0.3-0.3-0.6-0.7-0.8-1c-0.2-0.2-0.5-0.8-0.6-1.2
			c-0.2-0.5-0.3-0.8-0.4-1c-0.4-0.5-0.6-1.1-0.9-1.8c0.7,0,1.4,0.2,2.2,0.3c0.6,0.1,1.4,0.1,2,0.3c0.5,0,2,0.4,2.2,0.5
			c0.5,0.1,1.4,0.4,1.6,0.5c0.4,0.2,0.5,0.1,0.8,0.4c0.3,0.2,0.7,0.5,1,0.7c0.7,0.5,1.1,1.3,1.7,1.9c0.3,0.2,0.4,0.8,0.8,1.1
			c0.3,0.3,0.7,0.9,1.1,1.2c1,0.8,2.2,1.1,3.3,1.6c0.6,0.2,2.8,1.4,3,1.9c0.1,0.2,1,0.8,1.3,0.9c0.5,0.4,1.2,0.4,1.5,1.1
			c0.9,0.7,1.6,1.4,2.5,2.1c0.6,0.5,0.8,1.2,1.6,1.5c0.9-0.6,0.6-1.2,0.5-2.2c-0.3-2-0.7-4-1.3-6c-0.6-1.8-1.4-3.5-1.8-5.3
			c-0.5-2.7,0.9-4.9,2-7.2c0.6-1.5,1.1-2.7,1.2-4.4c0.1-1.9-0.1-3.7,0.1-5.6c0.1,0.2,0.3,0.2,0.4,0.4c0.4,0.4,0.2,0.3,0.5,0.6
			c0.3,0.3,0.4,0.6,0.9,1.1c0.5,0.6,0.5,0.5,0.8,0.9c0.5,0.6,1,1.2,1.3,1.9c0.5,1.1,1,2,1.2,3.4c0.1,0.9,0.3,1.9,0.3,2.8
			c0,1-0.1,1.8,0.1,2.9c0,0.7,0.1,1.3,0.2,1.9c0,0.7,0.4,1.2,0.6,2.2c0.5,1.6,0.9,2.5,1.3,3.9c0.4,1.7,0.7,3.4,0.8,5.1
			c0,0.4,0,1.7-0.1,2.1c0,0.5,0.2,0.8,0.8,0.4c0.3-0.2,0.6-0.6,0.8-0.9c0.8-1,1.3-2.3,2-3.5c0.1-1.2,1.6-2.1,2.2-2.9
			c0.2-0.2,0.5-0.3,0.9-0.5c0.5-0.2,1.1-0.5,1.6-0.8c0.8-0.3,2.2-1.2,3-1.5c1.3-1.3,2.3-2.8,3.5-4.2c0.6-0.8,1.2-1.6,1.9-2.3
			c0.3-0.4,0.9-0.6,1.2-1c0.1-0.2,1.2-1,1.8-1.3c0.8-0.7,2-0.8,2.3-1.6c0.3,0.1-0.9,2.6-1,3c-0.2,0.6-0.2,1.1-0.3,1.6
			c-0.1,0.6-0.4,1.2-0.5,1.9c-0.4,0.7-0.5,1.8-1,2.5c-0.4,0.6-0.6,1.3-1.1,1.8c-0.6,0.8-1.1,1.3-1.8,1.9c-2.3,1.8-2.8,4.7-4.1,7.3
			c-0.7,1.3-1.1,2.8-2.1,4c-0.5,0.6-2.5,1.6-2.3,2.4c0.2,1.1,2.6-0.5,3.2-0.8c1.5-0.4,2.9-1.1,4.4-1.2c1.6-0.1,3.1,0,4.6,0.4
			c1.2,0.3,2.5,0.8,3.5,0.9c0.6,0,1.2,0.2,1.9,0.2c0.8,0,1.5-0.4,2.3-0.4c0.6,0,1.4-0.2,2-0.4c0.6-0.4,1.7-0.3,2.4-0.4
			c0.7-0.1,1.5,0,2.2,0.2c0.2,0.1,1.6,0.5,1.7,0.5c0.5,0.2,3.4,1.8,3.4,2.1c0.1,0.6-3.8,1.5-4.3,1.7c-1.8,0.5-3.5,0.9-5.3,1.6
			c-1.6,0.7-2.9,1.8-4.6,2.3c-1.9,0.6-4.1,0.6-6.1,0.4c-1.5-0.1-3.1-0.6-4.7-0.4c-1.3,0.2-2.4,0.7-3.6,1.3c-0.3,0.1-3.3,1.7-1.8,2
			c0.7,0.1,2,0.6,2.5,1.1c0.2,0.2,0.9,0.6,1.3,0.8c0.6,0.3,1.1,0.9,1.6,1.4c0.8,0.8,1.1,1.7,2,2.6c0.3,0.5,0.6,0.9,0.7,1.1
			c0.2,0.2,0.4,0.5,0.6,0.8c0.5,0.4,0.5,0.4,0.9,0.5c0.9,0.4,1.9,1.5,2.9,1.6c0.2-0.1,1,0.5,1.1,0.6c0.5,0.4,1,0.9,1.4,1
			c1.1,0.5,1.7,2.2,2.1,3.2c0.6,1.3,1.2,2.7,1.7,4.1c0.4,1.2,1.4,2.2,1.8,3.4c-3.8-0.5-6.3-3.3-9.4-5.2c-1.5-0.9-3.1-1.7-4.7-2.1
			c-1.9-0.5-3.5-1-4.8-2.6c-0.5-0.6-0.8-1.4-1.3-2c-0.5-0.8-1.3-1.2-2-1.8c-0.7-0.6-1.5-1.1-2.3-1.6c-0.4-0.2-2.2-1.7-2.3-0.6
			c-0.2,0.8,0.6,1.5,0.8,2.2c0.2,0.9,0.4,1.9,0.5,2.8c0.2,1.7-0.2,3.3-0.4,5c-0.2,1.6-0.1,3.1,0.2,4.7c0.4,2,1.2,4.1,0.9,6.2
			c0,0.6-0.2,1.4-0.2,1.5c-0.1,0.6-0.2,0.9-0.4,1.5c-0.4,0.9-0.6,1.8-1,2.7c-0.4,0.8-0.6,1.6-1,2.3c-0.3,0.6-0.9,1.6-0.8,2.2
			c0.1,0.8-0.7-0.4-0.8-0.6c-0.4-0.6-0.6-1.2-1-1.8c-0.9-1.7-1.2-3.3-1.4-5.2c-0.1-0.9-0.1-1.8-0.4-2.7c-0.3-1.1-0.8-2-1.3-3
			c-0.6-1.2-0.7-2.3-0.8-3.6c-0.1-1.2,0.4-2.2,0.5-3.3c0-1.2,0.2-2.5-0.1-3.6c-0.5-0.9-0.8-2.4-0.9-3.4c-0.1-0.6-0.1-3-0.9-2.7
			c-0.6,0.2-0.8,1.7-1.2,2.5c-1.3,1.9-2.5,3.6-4.5,4.7c-1.1,0.6-2.3,1.1-3.4,1.8c-0.9,0.5-1.2,1.1-2.2,2c-0.6,1-1.3,1.5-1.6,2.2
			c-0.4,0.8-1,1.5-1.6,2.6c-0.3,0.7-1.4,1.5-2.1,2c-0.9,0.6-1.6,1.1-2.8,1.4c-1,0.3-1.7,0.7-2.6,1.3c-0.7,0.5-2.1,2.4-1.4,0.3
			 M67.5,168c0.7,0.4,1.9-1.2,2.3-1.7c0.5-0.7,1.2-1.1,1.7-1.7c0.7-0.9,1.4-1.7,2.1-2.6c1.1-1.3,2.3-2.5,3.6-3.6
			c0.4-0.4,0.9-0.8,1.3-1.1c0.6-0.5,1.3-0.8,2-1.4c0.4-0.2,1-0.5,1.1-0.7c0.6-0.7,1.3-1.3,1.8-2.1c0.9-1.1,1.6-2.3,2-3.6
			c0.1-0.3,0.4-0.7,0-0.8c-0.4-0.1-0.6-0.2-0.8,0.2c-0.3,0.6-0.7,1.2-1,1.8c-0.7,1.4-1.9,2.8-3.2,3.7c-1,0.7-1.9,1.4-2.9,2.1
			c-0.6,0.4-1.2,0.9-1.8,1.4c-0.1,0.1-1.4,1.4-1,0.4c0.2-0.5,0.3-1,0.4-1.5c0.1-0.4,0.5-0.8,0.7-1.4c0.6-0.7,1.1-1.5,1.8-2.2
			c0.3-0.3,1.2-0.8,1.3-0.9c0.5-0.4,1-0.5,1.4-1c0.6-0.7,1.1-1.5,1.7-2.3c0.3-0.4,0.6-0.9,0.8-1.4c0.4-0.9-0.5-1.7-1.1-0.8
			c-0.3,0.4-0.2,0.7-0.5,1c-0.3,0.4-0.6,0.8-0.9,1.2c-0.6,0.7-1.3,1.4-2.1,1.9c-1.2,1.4-2.5,2.5-3.6,4c-1.5,2-1.9,4.3-2.9,6.4
			c-0.3,0.6-0.5,1.3-0.7,1.9c-0.2,0.6-0.7,1-1.1,1.5C69.3,165.8,68,166.6,67.5,168 M95,175.9c0.3-0.8,0.3-1.6,0.3-2.5
			c0-0.5,0.1-1,0.1-1.5c0.2-0.6,0.3-0.9,0.3-1.2c0.2-1.6,0.7-3.4,0.5-4.9c-0.3-2.1-0.4-4.3-0.3-6.4c0.1-1.1,0-2.1,0.1-3.2
			c0.1-1.1-0.1-2.1-0.1-3.3c0-0.9,0.1-1.8-0.3-2.7c-0.4-1-1.8-0.4-1.4,0.3c0.5,2.1,0.5,4.4,0.6,6.4c0.1,1.9-0.6,3.8-0.4,5.8
			c0.1,1.3,0.2,2.5,0.3,3.8c0,0.4,0.4,1.6-0.1,1.8c-0.4-0.3-0.4-1.8-0.5-2.3c-0.2-1.2-0.5-2.3-0.4-3.5c0.2-1.7,0.6-3.8-0.3-5.4
			c-0.4-0.8-0.4-1.6-0.7-2.4c-0.3-0.8-0.6-1.6-0.8-2.5c-0.1-0.4-0.6-2.1-1.3-1.5c-0.7,0.6-0.1,2.2,0.2,2.9c0.5,1.7,1.4,3.1,1.7,4.9
			c0.3,2.1-0.3,4.1-0.2,6.2c0.1,2.1,1.1,4.1,1.5,6.1c0.3,0.9,0.5,1.8,0.5,2.8C94.3,174.3,94,176,95,175.9 M52,141.6
			c1,0.2,1.4,0,1.9-0.1c1-0.2,1.5,0,2.4-0.2c1.8-0.4,3.2,0,5,0c1,0,2.3,0,3.2,0.5c0.4,0.2,0.8,0.5,1.1,0.7c0.5,0.2,0.7,0.3,1.2,0.5
			c0.6,0.1,0.9,0.2,1.4,0.2c0.7-0.1,1.4-0.1,2-0.3c0.5,0,2.1-0.4,2.3-0.5c0.4-0.3,1.3-0.3,1.9-0.3c0.8,0,1.7-0.1,2.6,0
			c0.6,0,1.5,0.8,1.9,0c0.6-1.1-1.1-1.3-1.8-1.4c-2-0.3-4.1,0.2-6,0.5c-1,0.1-2,0.6-2.9,0.6c-1.1,0-2.2-0.6-3.1-1.2
			c0.5-0.3,1-0.3,1.5-0.5c0.6-0.2,1-0.6,1.3-0.7c0.5-0.1,1.5-0.4,2.2-0.4c0.9-0.1,1.9-0.2,2.8-0.1c1.7,0.2,3.3,0.4,4.9-0.1
			c0.3-0.1,1.9-0.3,1.1-1c-0.5-0.5-1.2-0.1-1.8,0c-1.8,0.3-3.6,0.1-5.4-0.1c-2.1-0.1-3.8,0.3-5.7,1.1c-1.2,0.7-2.7,0.8-3.9,1.3
			c-1.3,0.6-2.5-0.4-3.8,0c-0.4,0.1-1.8,0.3-2.7,0.5c-1,0.1-1.8,0.1-2.7,0.4c-0.3,0.1-1.8,0.5-1.7,0.8 M69.4,149.9
			c0.7,0.4,1.7,0.6,2.5,0.4c0.2,0,0.9-0.9,1.1-1c1-0.9,2.6-1.5,3.4-2.5c-0.1-0.3-1.7,0.4-2.2,0.6c-0.8,0.3-1.4,0.6-2.3,1.1
			c-0.2,0.1-1,0.5-1.2,0.6c-0.3,0.1-0.7,0.4-1.1,0.7 M86,161.3c1.9,0.4,2.4-3.4,1.7-4.6c-0.6,0.2-0.9,2.1-1,2.6
			C86.3,159.9,86.2,160.6,86,161.3 M84.4,160.1c0.6-0.1,1-1.3,1.1-1.8c0-0.2,1-2.6,0.1-2c-0.4,0.3-1.2,1.2-1.6,1.5
			C83,158.5,84.1,159.3,84.4,160.1 M69.9,147.9c0.7-0.2,0.9-0.3,1.3-0.5c0.8-0.3,1.2-0.5,2-0.9c1.2-0.5,3.2-0.8,3.3-1.5
			c-0.5,0-1.3,0-1.9,0.1c-1.1,0.2-2.1,0.4-3.2,0.5c-0.5,0-1.4,0.2-1.7,0.7c-0.2,0.6-1,1.7-0.4,2 M98.7,158.6c-0.1,0.7,0.2,1,0.8,1.2
			c0.5,0.1,1.5,0.6,1.9,0.6c0.3,0-0.5-1.9-0.7-2.3c-0.5-1-1-2.1-1.6-3.1c-0.1,0.6-0.2,1.2-0.3,1.8C98.8,157.4,98.8,157.9,98.7,158.6
			 M102.6,159.7c0.7,0.6,0.7-0.2,0.8-1c0.1-0.9-0.4-1.7-1-2.3c-0.2-0.2-1.5-2.5-2-2.3c0,0,0.9,2.7,1.1,3
			C102,158.1,101.9,159,102.6,159.7 M68.8,133c0.4,0.2,3.9,0.2,4.2,0c-0.2-0.1-4.8-1.9-4.9-1.7C67.9,131.5,68.6,132.8,68.8,133
			 M69.4,130.2c-1,0.4,4.5,2,5,2.1c-0.4-0.4-2.7-2.1-3.2-2.5c-0.1,0-1.2,0.2-1.2,0.2 M108.3,155.2c0.3,0.1,1,0.5,1.2,0.6
			c0.6,0.3,1.2,0.6,1.9,0.8c1,0.4,2,0.9,3,1.5c1.9,1.1,2.9,2.3,4.2,4c0.2,0.3,0.6,0.8,1.1,0.6c0.8-0.3,0-1-0.4-1.5
			c-1-1.1-1.8-2.3-2.8-3.5c-1-1.2-2.2-2.2-3.4-3.2c-1.3-1.1-2.9-2.2-3.8-3.7c-0.4-0.6-0.9-1-1.4-1.6c-0.4-0.5-0.6-1-1.1-1.4
			c-1.1-0.7-1.8-1.7-2.9-2.4c-0.5-0.3-3.1-1.8-3.1-0.6c0,0.7,2.3,1.7,2.9,2c0.6,0.3,1.1,1,1.7,1.5c0.4,0.3,0.6,0.8,0.9,1.2
			c0.3,0.4,0.8,0.5,1,1.1c0.2,0.6,1.1,1.6,1.6,2.1c0.5,0.4,1.1,0.8,1.4,1.3c0.3,0.5,1,0.7,1.3,1.2c-0.9,0.1-2.3-0.9-3.1-1.4
			c-1-0.6-1.4-1.6-2.2-2.4c-0.7-0.7-1.3-1.4-2.1-2.1c-1.1-0.9-2.4-1.6-3.7-2.2c-0.4-0.2-0.9-0.6-1.3-0.3c-0.5,0.4,0.2,0.8,0.5,1.1
			c1.2,0.8,2.5,1.5,3.6,2.5C105,151.9,106.2,153.9,108.3,155.2 M85.4,147.9c0,0,2.1,0.8,2.3,1c0.8,0.5,1.8,0.4,2.7,0.5
			c0.6,0.1,1.2-0.2,1.6-0.2c0.7-0.1,1.6-0.2,2.2-0.6c0.5-0.2,1.2-0.6,1.6-0.7c0.5-0.4,1.2-0.6,1.7-1c2.3-1.7,3.6-4.9,3.9-7.7
			c0.5-3.6-1.5-6.9-4.3-9c-2.6-1.9-5.6-2.4-8.8-2c-1.3,0.2-3.3,1.1-4.3,2c-0.5,0.5-1.1,0.7-1.6,1.2c-0.3,0.3-1.6,3.4-1.7,4
			c-0.2,0.9-0.2,1.8-0.3,2.7c0,0.7-0.2,1.4-0.2,2c0.1,1.5,0.9,2.6,1.6,4C82.6,145.7,84,147,85.4,147.9 M74.6,129.2
			c1.1,0.9,2.5,1.7,3.8,2.2c0.6,0.2,0.7,0.8,1.2,1c0.4,0.2,0.7,0.5,1.1,0.3c0.5-0.3,0.5-0.6,0.2-1.1c-2.2-3.1-6.8-3.4-8.3-7.3
			c0.4-0.2,0.8,0.6,1.2,0.7c0.4,0.4,0.6,0.2,1.1,0.4c0.6,0.3,1.1,0.8,1.8,1.1c0.7,0.3,1.4,0.7,2,1.2c0.8,0.7,1.8,2.1,2.8,2.5
			c1.4,0.6,0.2-1.4,0-1.7c-1.7-2-4-3.9-6.6-4.9c-3.7-1.4-6-4.4-8.7-7.2c-1.1-1.1-1.7-1.1-3.1-1.9c-0.7-0.4-1.2-0.5-1.9-0.7
			c-0.6-0.1,0.1,0.9,0.6,1.3c0.9,0.7,0.7,0.5,1.7,1.1c0.7,0.4,0.7,0.4,1.2,0.9c0.1,0.1,1,1,1.1,1.1c1.4,1.5,2.9,2.8,3.9,4.5
			c0.6,1,1.4,2,2,3.1c0.3,0.6,1.6,2.3,2.2,2.8C74.1,128.7,74.4,129,74.6,129.2 M108.3,144.9c0.5,0.5,0.8,1.2,1.5,1.3
			c0.7,0.1,2-0.8,2.5-1.2c0,0-0.1-0.1-0.1-0.1c-0.6-0.5-2.2-0.6-2.9-0.8c-0.2,0-0.3-0.1-0.7-0.2c-0.5,0-1.3,0-1.4-0.1
			C107.5,144.2,107.9,144.4,108.3,144.9 M87.5,127.4c0.3,0.5,0.8-0.7,0.8-0.8c0.1-1.1-0.3-2.1-0.6-3.1c-0.5-1.8-1.4-3.4-1.8-5.2
			c-0.3-1.4-0.2-2.7,0.2-3.9c0.6-1.7,0.6,0.2,1.1,1c0.4,1.9,1.2,3.4,1.8,5.1c0.2,0.5,0.9,4.5,1,4.5c0.3,0.8-0.1,1.7,0.3,2.4
			c0.9-0.4,0.8-1.4,0.8-2.4c0-2.2-0.7-4.5-1.5-6.6c-0.7-1.8-1.4-3.4-1.7-5.3c-0.3-1.7-0.5-3.9-0.2-5.5c-0.3-0.8-1-0.9-1.2,0
			c0,0.4-0.3,0.9-0.3,1.1c-0.1,1.2-0.8,2.1-1.1,3.2c0,0-0.5,2.1-0.6,2.4c-0.2,0.5-0.1,1.1-0.1,1.6c0,0.9,0.1,1.6,0.4,2.6
			c0.3,1.7,1,3.3,1.4,4.8c0.2,0.7,0.5,1.5,0.7,2.2C87.3,126.2,86.8,127,87.5,127.4 M102.7,138.3c0.5,0.1,1.5-0.4,1.9-0.5
			c0.9-0.3,1.5-0.1,1.9-0.2c1.7-0.3,3.2-0.2,4.9-0.1c1.6,0.1,3.2,0.4,4.7,0c1.5-0.4,3.1-1,4.5-1.6c0.7-0.5,2.3-0.8,2.9-1.1
			c0.8-0.2,1.4-0.1,2.1-0.3c0.6,0.1,1.9,0.2,2.1-0.2c0.5-1.1-3.6-0.9-4.1-0.9c-1.9,0-3.8,0.4-5.7,0.4c-1.9-0.1-3.8-0.5-5.7-0.6
			c-0.9-0.1-1.7-0.4-2.6-0.5c-1-0.1-2.1-0.1-3.1,0c-1.6,0.2-2.5,0.5-3.8,1.4c-1.1,0.8-0.8,2,0.4,1.6c0.3-0.1,0.6-0.5,0.9-0.6
			c0.7-0.3,1.5-0.5,2.3-0.7c1.5-0.3,2.9-0.4,4.4-0.2c1.4,0.2,2.6,0.6,4,0.7c0.8,0.1,1.7,0.1,2.5,0.1c0.1,0.1,1.6,0.2,1.6,0.3
			c-1.4,0.6-2.7,0.5-4.2,0.5c-1.8,0-3.5,0-5.3-0.1c-1.5-0.1-2.9,0.3-4.4,0.6C104.6,136.6,101.6,137.4,102.7,138.3 M77.5,119.7
			c0.9,0.9,2,1.3,3.2,1.9c-0.5-0.8-1.3-2.3-1.8-3.1c-0.3-0.4-0.6-1-1-1.2c-0.8-0.5-0.7,1.7-0.9,1.9 M109.3,142.4
			c1,0.5,2,0.7,3.1,0.9c0.9,0.2,1.7,0.7,2.6,0.9c0.1-1.1-0.7-1.4-1.6-1.5C112.1,142.6,110.7,142.3,109.3,142.4
			C110.2,142.8,109.3,142.4,109.3,142.4z M82.5,121.8c0-0.8-0.1-1.8-0.3-2.5c-0.1-0.6-1.8-2.3-2.6-2.1
			C79.2,117.2,82.3,122.1,82.5,121.8 M95.9,128.5c0.6,0.9,2.8-3,3.1-3.4c0.3-0.4,0.6-0.8,0.9-1.2c0.3-0.4,0.5-0.4,0.8-0.7
			c0.5-0.7,1.6-0.7,2.2-1.4c0.6,0.2-0.4,1.3-0.5,1.5c-0.4,0.8-0.3,1.5-0.7,2.2c-0.4,0.7-0.6,1.4-1,2.2c-0.1,0.5-0.6,1.1-0.8,1.3
			c-0.2,0.4-0.7,1-0.7,1.3c-0.1,0.6,0.4,0.9,1.1,0.5c0.7-0.4,0.7-1.1,1.1-1.7c0.4-0.6,0.8-1.3,1-1.9c1-2.5,1.7-4.8,3.4-6.8
			c0.8-1,2-1.8,2.7-3c1.2-0.8,2-2.3,2.8-3.5c0.5-0.7,0.9-1.4,1.4-2c0.2-0.4,0.3-0.5,0.4-0.7c0.2-0.4,0.1-0.4,0.3-0.7
			c0.2-0.3,0.5-0.9,0.6-1.3c0.3-0.8-0.6-0.6-0.9-0.1c-1.6,2.4-3.1,5-5.1,7.2c-0.2,0.3-0.9,0.8-1.2,1.1c-0.3,0.4-1.1,1.1-1.5,1.3
			c-0.6,0.3-1,0.8-1.6,1.1c-0.7,0.3-1.4,0.7-2.1,1.1c-1.4,0.8-2.3,2.1-3.3,3.3c-0.5,0.6-0.8,1.4-1.3,2.1
			C96.3,127,95.8,127.7,95.9,128.5 M107.9,129.7c1,0,3.3,0.3,3.6-0.7c0.1-0.3,0.3-2.5-0.3-1.8c-0.4,0.5-0.8,0.9-1.4,1.3
			C109.5,128.6,107.8,129.5,107.9,129.7 M94.9,119.5c0.1,0.3,0,0.5,0.3,0.6c0.4-0.5,2.4-5.7,1.8-5.7c-0.3,0-0.6,0.3-1,0.4
			c-0.4,0.3-1.2,0.6-1.6,0.9c-0.4,0.2-0.9,0.4-0.5,1C94.4,117.3,94.8,118.6,94.9,119.5 M107.5,127.9c0.6-0.1,4.3-3.2,4.5-3.5
			c-1.2,0.4-2.7-0.8-3.4,0.8c-0.2,0.6-0.5,1.2-0.8,1.7C107.7,127.4,107.5,127.5,107.5,127.9 M97.9,119.3c0.3-0.4,1.6-0.9,1.5-1.4
			c-0.1-0.5-0.5-1.4-1.1-1.6c-0.2,1.1-1.1,2.3-1,3.5C97.3,119.7,97.8,119.3,97.9,119.3 M87,147c0.8,0.2,1.5,0.6,2.2,0.9
			c0.7,0.2,1.2,0.1,1.9,0.1c1.3-0.1,2.5-0.6,3.6-1.2c1.7-1,3.4-2.4,4.5-4c1-2,2-5.6,0.5-7.5c-0.5-0.6-1-1.6-1.6-2
			c-0.8-0.6-1.4-1.8-2.3-2.3c-1-0.6-1.7-1-2.8-1.2c-0.8-0.1-1.5,0-2.3-0.1c-0.5-0.1-1.1-0.1-1.7,0.1c-2.1,0.6-3.9,1.3-5.5,2.9
			c-1.8,1.8-1.9,4.5-1.6,6.9C82.3,142.6,84.5,145.3,87,147 M86.4,143.6c0.5,0.5,2.7,1.5,3.8,1.6c2.2,0.2,3.6-0.7,5.4-1.8
			c1.4-0.8,2.3-3.2,2.2-4.9c-0.1-2.1-1.4-4.2-3-5.5c-1.7-1.3-4.3-1.1-6.2-0.5c-0.7,0.5-1.5,0.9-2.2,1.5c-0.7,0.6-0.9,1.1-1.2,1.9
			c-0.2,0.3-0.6,1.4-0.7,1.5c-0.2,0.9-0.2,1.7-0.1,2.7c0,0.7,0.4,1.3,0.9,2c0.2,0.3,0.2,0.4,0.4,0.7 M88.2,143.1
			c2.6,1.5,6.3,0.9,7.6-1.9c0.3-0.6,0.6-1,0.5-1.7c-0.1-0.8,0-1.6-0.3-2.5c-0.4-1-1.5-1.8-2.4-2.5c-2.1-1.8-5.8-1.3-7.1,1.4
			c-0.2,0.3-0.4,0.5-0.5,1c-0.1,0.6-0.2,1.2-0.2,1.9C86.1,140.5,86.6,142.3,88.2,143.1 M89.5,142.3c1,0.4,1.8,0.4,2.1,0.3
			c0.9-0.2,1.6-0.6,2.2-1.3c1.6-1.9,1.6-4-0.3-5.7c-1.7-1.6-4.3-0.4-5.5,1.1c-0.5,0.7-0.6,1.3-0.7,2.2c0.1,0.6,0.3,1.3,0.5,1.9
			c0.2,0.7,0.5,0.7,1.1,1.2 M91.1,141c0.7-0.1,1.1-0.1,1.6-0.4c0.6-0.3,0.8-0.7,1-1.3c0.1-0.5,0.1-1.2-0.4-1.6
			c-0.5-0.6-0.9-0.7-1.5-0.8c-1.1-0.3-2.5-0.3-3,0.9c-0.6,1.4,0.1,3.1,1.7,3.2"/>
	</g>
	<path id="PTO_IZQ" fill-rule="evenodd" clip-rule="evenodd" fill="#08255A" d="M113.3,252.7c-1.3,0-2.2-1-2.2-2.2
		c0-1.3,1-2.2,2.3-2.2c1.2,0,2.2,1,2.2,2.3C115.5,251.8,114.4,252.7,113.3,252.7"/>
	<path id="PTO_DCHA" fill-rule="evenodd" clip-rule="evenodd" fill="#08255A" d="M164.8,254.5c-1.3,0-2.1-1-2.1-2.2
		c0-1.3,0.9-2.2,2.2-2.2c1.2,0,2.2,1,2.2,2.3C167,253.6,165.9,254.5,164.8,254.5"/>
	<path id="INSTITUTO_DE_ASTROFISICA_DE_CANARIAS" fill-rule="evenodd" clip-rule="evenodd" fill="#08255A" d="M182.5,240.4l-0.8,0.2
		c-2-2.6-5.2-4.6-8.7-3.3c-2.6,0.8-3.6,3.8-1.9,6.1c2.9,4.1,11.8,1.1,13.9,7.3c1.2,3.1-0.7,6.2-3.9,7.4c-3.4,1.1-5.8-0.7-5.8,2
		l-0.6,0.2l-3.2-6.6l0.8-0.3c1.8,2.7,4.9,4.6,7.8,3.6c2-0.7,3.1-2.3,2.4-4.4c-0.7-1.8-3.2-2.4-4.9-2.8c-5.3-1.1-8.7-1.5-10-5.3
		c-1.1-2.9,0.3-6.7,4.7-8.3c3.4-1.1,6.5,0.5,6-2.1l0.7-0.2L182.5,240.4z M202.3,248l0.6-0.3l-2.5-17.8c-0.5-3.5-0.9-6.2,0.8-7.4
		l-0.3-0.5l-5.8,3.4l0.3,0.6c1-0.6,2.1-0.9,2.7,0c0.7,1.2,0.8,4.2,1.1,5.6l-7.7,4.5l-2.5-1.8c-2.7-2-3.1-2.6-0.7-4.1l-0.3-0.6
		l-7.5,4.3l0.3,0.6c1.6-1.1,3.2,0.3,4.5,1.2L202.3,248z M200.9,243.2l-8.3-6.1l6.9-4.1L200.9,243.2z M217.1,234.5
		c0.6,0.8,0.9,2-1.2,3.8l0.4,0.5l7.7-6.7l-0.3-0.5c-2.2,2-3.3,1.4-3.9,0.6l-11.2-13c-0.7-0.7-1-1.9,1.2-3.8l-0.3-0.5l-7.9,6.7
		l0.5,0.5c2.1-1.8,3.3-1.4,4-0.6L217.1,234.5z M224.5,202.1c-0.8-0.6-1.3-1.7,0.2-3.5l-0.4-0.4l-6.2,7.1l0.4,0.4
		c1.7-1.7,2.9-1.5,3.6-0.8l5.7,5.1l-1.2,1.5l-13.3-0.8l-3.6,4.2l0.6,0.4c1-1,2.1-1.2,3.5-1.2l10.8,0.4c-1.8,2.7-2.5,6,0.3,8.4
		c2.9,2.7,6.6,1.5,10.4-2.9l6.1-6.8l-0.6-0.4c-1.6,1.8-2.7,1.4-3.5,0.8L224.5,202.1z M234.9,216c1.3,1.1,1,1.3-0.5,2.9
		c-2,2.4-4.6,3.2-7.1,1c-2.8-2.4-1.5-5.4,1.6-9.2L234.9,216z M250.6,198.5l0.2-0.6L239.5,184c-2.3-2.7-4.1-4.8-3.2-6.7l-0.6-0.4
		l-3.1,6.1l0.6,0.2c0.6-1.1,1.3-2,2.3-1.4c1.1,0.6,3,3.1,3.9,4.2l-4.2,7.9l-3.1-0.3c-3.4-0.3-4-0.6-2.8-3.2l-0.6-0.4l-4.1,7.7
		l0.6,0.4c0.9-1.7,3.1-1.5,4.6-1.3L250.6,198.5z M246.7,195.2l-10.1-1l3.7-6.9L246.7,195.2z M255.8,181.7c0.9,0.2,1.9,1,1.2,3.8
		l0.6,0.1l2-7.8l-0.6-0.1c-0.7,2.7-1.9,2.9-2.9,2.6l-13.4-3.4l19.2-8.7l1.6-5.7l-0.7-0.1c-0.4,1.6-0.8,1.8-2.2,2.5l-0.5,0.2
		l-16.7-4.3c-0.9-0.2-1.9-1-1.3-3.7l-0.6-0.3l-2,8l0.6,0.1c0.7-2.7,1.8-3,2.9-2.6l15.2,3.9l-22.1,9.9l-0.1,0.5L255.8,181.7z
		 M265.4,145.4l0-0.7l-16.1-7.7c-3.3-1.6-5.7-2.6-5.7-4.7l-0.7,0l-0.3,6.8l0.6,0c0-1.2,0.4-2.3,1.5-2.3c1.2,0,4,1.7,5.3,2.1
		l-0.5,8.8l-3,1.1c-3.1,1.1-3.7,1.1-3.8-1.8l-0.6,0l-0.5,8.7l0.7,0c-0.1-1.9,2-2.5,3.4-3L265.4,145.4z M260.5,143.8l-9.5,3.5
		l0.3-7.8L260.5,143.8z M265.5,128.4l0-0.7c-2.9-0.7-0.4-2.8-1.2-7.4c-1-6.9-6.7-10.8-13.4-9.7c-7.5,1.1-10.8,6.8-9.9,13.4
		c0.6,3.2,2.8,6.5,5.6,8.1l0.6-0.7c-2.7-2-4.1-4.1-4.6-7.4c-0.9-5.6,3.9-8.8,8.5-9.6c6.1-0.9,11,0.7,11.9,6.4
		c0.5,3.8-1.5,6.6-5.2,8.2l0.2,0.8L265.5,128.4z M252.7,82.6c3.8,8.1,2.7,14.4-4.3,17.6c-6.4,2.9-12.2,0.6-16.1-7.8l-3.8-8.3
		l0.6-0.2c1,2.2,2.2,2.2,3.1,1.8l15.5-7.4c1-0.4,1.7-1.3,0.7-3.5l0.6-0.3L252.7,82.6 M233.2,91c2.7,6.4,7.8,8.5,13.6,6
		c6-3,7.4-8.4,4.7-14.2c-0.7-1.4-0.9-1.6-2.4-0.9l-6.9,3.2l1.7,3.7c1,2.1,2.4,3.6,4.8,2.5l0.3,0.6l-7.3,3.4l-0.3-0.7
		c2.4-1.1,2.2-3.2,1.3-5.2l-1.8-3.9l-6.9,3.2C232.9,89.4,233,90.3,233.2,91 M233.6,54.3l-0.4-0.5l-17.1,5.8
		c-3.4,1.1-5.8,2.2-7.3,0.7l-0.5,0.4l4.5,5.1l0.4-0.3c-0.8-1-1.3-2.1-0.5-2.7c1-0.9,4-1.7,5.2-2.3l6,6.7l-1.4,2.8
		c-1.3,3-1.9,3.5-3.9,1.4l-0.5,0.5l5.8,6.5l0.5-0.4c-1.3-1.4-0.4-3.3,0.2-4.7L233.6,54.3z M229.1,56.6l-4.4,9.2l-5.3-5.8L229.1,56.6
		z M221.4,41.9l-0.6-0.5c-2.7,1.6-2.3-1.7-6.1-4.4c-5.5-4.2-12.4-2.9-16.5,2.5c-4.4,6.1-2.7,12.6,2.6,16.4c2.7,2,6.5,2.7,9.7,1.9
		l0-0.9c-3.3,0.5-5.8,0.1-8.5-1.9c-4.5-3.3-3.5-9-0.7-12.9c3.6-5,8.4-7.1,12.9-3.9c3.2,2.3,3.6,6,2.3,9.5l0.6,0.5L221.4,41.9z
		 M197.6,29.8c0.3-0.8,1.4-1.5,3.9-0.2l0.3-0.6l-9.1-4.7l-0.4,0.6c2.5,1.2,2.5,2.5,2.1,3.3l-8.1,15.3c-0.3,0.9-1.3,1.6-3.8,0.3
		l-0.4,0.6l9.1,4.8l0.3-0.6c-2.5-1.4-2.4-2.5-2-3.5L197.6,29.8z M167.5,39.3l0.6,0.2c1.2-2.3,2.7,1,6,2.2c4.3,1.5,7.9-0.5,9-3.4
		c1.4-3.8-1.1-6.4-4.5-10.6c-1-1.3-2.5-3.3-1.9-5.3c0.8-2,2.6-2.6,4.5-1.9c3,1,4.2,4.5,3.9,7.7l0.8,0.2l1.8-7.1l-0.6-0.2
		c-1.6,2.2-2.3-0.7-5.8-2.1c-3.1-1.1-6.5,0.1-7.6,3.3c-2.2,6.1,6.5,9.5,6.2,14.6c-0.2,2.7-2.8,4.4-5.5,3.3c-3.3-1.1-4.6-4.6-4.6-8
		l-0.6-0.2L167.5,39.3z M167.2,18.2c0.2-0.9,1-1.9,3.7-1.2l0.2-0.7L161,14l-0.2,0.7c2.8,0.6,3.1,1.8,2.9,2.8l-3.7,16.8
		c-0.3,0.9-1,2-3.8,1.3l-0.1,0.6l10,2.2l0.1-0.7c-2.7-0.5-3-1.7-2.9-2.8L167.2,18.2z M148.3,35.3l0-0.6c-2.4-0.3-2.9-1.4-2.7-2.4
		l0.7-8.3l4.4,0.4c2.4,0.2,4.1,0.9,4,3.6l0.8,0l0.6-8l-0.7,0c-0.2,2.7-2.2,3.2-4.5,2.9l-4.5-0.4l0.6-7.4c0-0.8,0.4-1.3,1.5-1.2
		l4.5,0.4c2.4,0.2,4.5,0.2,4.6,3.8l0.8,0.2l0.4-4.9l-18.1-1.6l0,0.6c2.4,0.4,2.9,1.4,2.9,2.5L142,32.1c-0.1,0.9-0.7,1.9-3.2,1.8
		l-0.2,0.6L148.3,35.3z M137.8,23c-0.8-7.2-6.4-11.4-12.2-10.5c-6.6,0.6-10.7,6.1-10,12.8c0.8,7.2,6.4,11.2,12.4,10.7
		C134.7,35.1,138.5,29.7,137.8,23 M119.5,25c-0.7-6.5,1.1-10.4,6.1-11.3c5.4-0.6,7.8,4.4,8.4,9.7c0.6,3.6-0.2,10.2-6.1,11.2
		C123.9,35.5,120.2,32,119.5,25 M98.3,40c0.3,0.9,0.1,2.2-2.1,3l0.2,0.6l9-2.9l-0.2-0.6c-2.4,0.7-3.3-0.1-3.6-1.1l-2.4-7.4l1.8-0.6
		l11,7.4l5.2-1.7l-0.2-0.6c-1.5,0.3-2.6-0.1-3.7-0.8l-9.1-5.9c3-1.4,5.3-3.9,4.1-7.3c-1.3-3.8-5.2-4.6-10.6-2.8L89.3,22l0.2,0.6
		c2.3-0.7,3.2,0.1,3.4,1.1L98.3,40z M96.3,22.8c-0.5-1.5-0.2-1.7,2-2.3c2.8-1.1,5.6-0.5,6.6,2.8c1.2,3.5-1.4,5.4-6,7.1L96.3,22.8z
		 M92.2,45.3c-2.1,1.1-3.2,0.5-3.6-0.3l-9.1-16.2l2.1-1.1c2.3-1.2,3.7-2,6.4,1.5l0.7-0.4l-3.1-5l-17,9.4l2.8,5.2l0.7-0.3
		c-1.4-4.2,0-5,2.1-6.2l2.1-1.2l9.1,16.1c0.5,0.9,0.6,2.1-1.6,3.3l0.3,0.6l8.2-4.7L92.2,45.3z M69.2,62.4l0.6-0.4
		c-1.4-2.1,2.2-1.8,4.9-4c3.6-3,3.5-7.1,1.6-9.5c-2.6-3.1-5.9-2.3-11.3-1.6c-1.8,0.3-4.3,0.6-5.6-1c-1.3-1.6-0.9-3.5,0.7-4.8
		c2.4-2,6-1.3,8.6,0.6l0.7-0.6L64.2,36l-0.6,0.4c1,2.5-1.9,1.6-4.7,3.9c-2.5,2.1-3.2,5.6-1,8.2c4.1,5.2,11.5-0.6,15.6,2.2
		c2.2,1.6,2.4,4.6,0.2,6.3c-2.8,2.4-6.5,1.6-9.4-0.2l-0.6,0.4L69.2,62.4z M42.9,56.8l-0.5,0.6l8,15.9c1.6,3.2,3,5.6,1.7,7.3l0.4,0.4
		l4.4-5.1l-0.6-0.4c-0.7,0.9-1.7,1.5-2.6,0.8c-0.9-0.9-2.1-3.7-2.8-4.9l5.8-6.9l3.1,1c3.1,0.9,3.7,1.4,1.8,3.7l0.6,0.5L68,63
		l-0.6-0.3c-1.2,1.5-3.2,0.6-4.7,0.2L42.9,56.8z M45.8,60.9l9.7,3.1l-5.1,6L45.8,60.9z M23.1,87.9c3.6-7.9,9.2-11.3,16.1-8
		c6.5,2.7,8.4,8.9,4.7,17.2l-3.7,8.2l-0.6-0.3c0.9-2.3,0.2-3.2-0.7-3.6l-15.6-7C22.4,94,21.2,94,20,96.3L19.5,96L23.1,87.9
		 M42.3,97.4c3.2-6.2,1.3-11.6-4.5-14.1c-6-2.9-11-0.2-13.7,5.6c-0.6,1.5-0.6,1.7,0.9,2.5l6.9,3.1l1.7-3.9c0.9-2.1,1.2-4.1-1.2-5.2
		l0.2-0.6l7.3,3.3l-0.4,0.6c-2.3-1.1-3.8,0.4-4.7,2.5L33.1,95l7,3.2C41.2,98.7,42,98.1,42.3,97.4 M26.6,111.1
		c-7.2-1.1-12.8,3.4-13.3,9.4c-1.1,6.5,3.4,11.8,10.1,12.7c7.2,1,12.4-3.5,13.4-9.4C37.6,117,33,112,26.6,111.1 M24,129.5
		c-6.5-1-9.9-3.7-9.5-8.8c0.7-5.3,6.2-6.5,11.5-5.7c3.7,0.3,9.8,2.7,9.4,8.8C35.2,127.8,30.9,130.4,24,129.5 M34.3,139.4
		c0.1,2.6-0.9,3.1-2,3.2l-18.5,1l-0.1-2.5c-0.1-2.5-0.2-4.2,4.1-5l0-0.9l-5.9,0.5l1.1,19.3l5.8,0l-0.1-0.9c-4.4-0.5-4.5-2-4.6-4.6
		l-0.1-2.5l18.5-0.9c0.9-0.1,2.1,0.4,2.2,2.8l0.7,0l-0.6-9.5L34.3,139.4z M32.1,174.9c6-1.7,8.2-4.8,6.6-10.7
		c-0.5-1.4-1.2-3.1-1.9-4c-2.8-3.3-5.8-2.9-9.6-1.9l-10.4,2.7c-0.9,0.3-2.1,0-2.9-2.6l-0.6,0.2l2,7.6l0.6-0.1
		c-0.6-2.6,0.3-3.4,1.3-3.6l10.4-2.7c3.2-0.8,7.9-2,9.5,4.2c1,4.1-0.6,6.2-5.7,7.5l-11.1,2.9c-0.9,0.3-2.1,0.1-2.8-2.4l-0.6,0.2
		l2.3,9.2l0.7-0.2c-0.6-2.5,0.2-3.2,1.3-3.4L32.1,174.9z M42.8,179.5c1.1,2.2,0.2,3.2-0.6,3.7l-16.6,8l-1.1-2.2
		c-1.1-2.3-1.9-3.7,1.8-6.2L26,182l-5.2,2.7l8.4,17.4l5.3-2.3l-0.3-0.7c-4.2,1.2-5-0.2-6-2.4l-1.1-2.2l16.7-8.1
		c1-0.4,2.1-0.4,3.2,1.8l0.6-0.3l-4.1-8.5L42.8,179.5z M35.1,205.5c-0.8,0.5-2.1,0.7-3.6-1.6l-0.5,0.3l5.6,8.6l0.6-0.5
		c-1.7-2.2-1-3.4-0.2-4l14.3-9.4c0.8-0.5,2.1-0.7,3.6,1.6l0.6-0.5l-5.7-8.4l-0.5,0.3c1.6,2.4,1,3.4,0.1,4L35.1,205.5z M57.7,204.3
		c1.7,1.9,1.2,2.9,0.5,3.6l-13.8,12.3l-1.7-1.8c-1.7-1.9-2.7-3.1,0.1-6.6l-0.6-0.6l-4.2,4l12.8,14.5l4.5-3.7l-0.5-0.6
		c-3.8,2.3-4.9,1.1-6.5-0.8l-1.6-1.8l13.8-12.3c0.7-0.6,1.9-0.9,3.6,0.8l0.5-0.3l-6.4-7.1L57.7,204.3z M80.2,223.7l-0.6-0.5
		c-1.9,1.7-2.2-1.7-5-4c-3.6-2.9-7.6-2.1-9.5,0.5c-2.6,3.2-1.1,6.2,0.8,11.4c0.7,1.6,1.4,3.9,0.2,5.6c-1.3,1.7-3.2,1.6-4.8,0.3
		c-2.6-1.9-2.5-5.4-1.2-8.4l-0.6-0.6l-4.1,6.3l0.6,0.4c2.3-1.4,2,1.6,4.9,3.8c2.6,2.1,6.2,2,8.2-0.7c4.1-5.1-3.1-11.1-1.2-15.7
		c1-2.6,3.9-3.2,6.2-1.5c2.9,2.2,2.8,6,1.8,9.1l0.6,0.5L80.2,223.7z M73.3,243.9c-0.5,0.8-1.4,1.7-4,0.3l-0.2,0.6l7.2,3.7l0.3-0.6
		c-2.5-1.2-2.4-2.5-2-3.3l6.3-12.2l4.2,20.5l5.2,2.8l0.2-0.6c-1.5-0.9-1.6-1.2-2-2.7l-0.1-0.5l8-15.5c0.5-0.9,1.5-1.5,4-0.3l0.2-0.6
		l-7.3-3.8l-0.2,0.6c2.5,1.3,2.5,2.5,2,3.5l-7.1,13.9L83.1,226l-0.4-0.3L73.3,243.9z M99.6,256.5c-0.2,0.9-1.1,1.8-3.8,0.9l-0.1,0.7
		l9.6,3.1l0.2-0.6c-2.7-0.8-2.8-2.1-2.6-3l5.3-16.5c0.2-0.9,1.1-1.8,3.8-0.9l0.1-0.7l-9.8-3l-0.1,0.6c2.6,0.9,2.8,2,2.6,3
		L99.6,256.5z"/>
	<path id="IAC" fill-rule="evenodd" clip-rule="evenodd" fill="#4C9FDC" d="M124,260.6c-0.3,1.6,0.4,2.8,2.2,3.1l-0.1,0.7l-9.4-1.4
		l0.2-0.6c1.7,0.3,2.7-0.8,2.8-2.4l2.2-14.9c0.2-1.7-0.5-2.9-2.2-3.1l0-0.6l9.3,1.2l0,0.7c-1.8-0.2-2.8,0.7-3,2.3L124,260.6z
		 M135.9,243l-7.2,19c-0.7,1.8-1.3,2-2.1,2l0,0.7l5.5,0l0-0.6c-1.9-0.1-2.4-1.2-1.9-2.8l1-2.9l6.3,0.2l1.3,3.6
		c0.4,1.7-1.2,2-2.4,1.9l0,0.6l8.6,0.2l0-0.7c-0.4,0-1.4,0.1-1.8-1.4l-6.4-20L135.9,243z M131.8,257.2l2.8-8l2.5,8.2L131.8,257.2z
		 M159.4,241l-0.6,0.1c-0.6,1.3-0.6,1.9-2.9,1.2c-1.4-0.4-2.6-0.6-3.9-0.5c-1.7,0.3-3.6,1.1-5.2,2.7c-2.2,2.2-3.2,6-2.7,9.8
		c0.4,3.8,2.3,7.3,5,8.9c1.9,1.1,3.8,1.5,5.7,1.4c1.5-0.2,2.3-0.5,2.9-0.8c2.7-1.3,3.5-3.5,4.1-4.6l-0.8-0.8
		c-0.6,1.1-1.8,3.4-4.1,4.3c-1.8,0.7-3.3,0.7-4.4,0.2c-1.1-0.6-1.8-1.4-2.6-3.1c-0.5-1.2-1.2-3.5-1.4-6c-0.2-2.5-0.3-4.6,0-6.1
		c0.3-2.2,0.9-3.4,2-4.3c0.4-0.4,1-0.6,1.5-0.6c0.4-0.1,0.8-0.1,1.4-0.1c3.7,0.7,5.5,4.7,6.1,5.8l0.7,0L159.4,241z"/>
	<path id="ESTRELLAS" fill-rule="evenodd" clip-rule="evenodd" fill="#FFFFFF" d="M175.6,121.6l2.9,7.5l7.5,2.9l-7.5,2.9l-2.9,7.5
		l-2.9-7.5l-7.5-2.9l7.5-2.9L175.6,121.6z M162.7,114.2l-3.6,1.4l3.6,1.4l1.4,3.6l1.4-3.6l3.6-1.4l-3.6-1.4l-1.4-3.6L162.7,114.2z
		 M175.5,98.5l-3.6,1.4l3.6,1.4l1.4,3.6l1.4-3.6l3.6-1.4l-3.6-1.4l-1.4-3.6L175.5,98.5z M148.8,95.2l-3.6,1.4l3.6,1.4l1.4,3.6
		l1.4-3.6l3.6-1.4l-3.6-1.4l-1.4-3.6L148.8,95.2z M148.5,72.2l-4,1.5l4,1.5l1.5,4l1.5-4l4-1.5l-4-1.5l-1.5-4L148.5,72.2z
		 M155.5,57.5l-4,1.5l4,1.5l1.5,4l1.5-4l4-1.5l-4-1.5l-1.5-4L155.5,57.5z M180.3,66.6l-3.7,1.4l3.7,1.4l1.4,3.7l1.4-3.7l3.7-1.4
		l-3.7-1.4l-1.4-3.7L180.3,66.6z M161.8,87.3l-6,2.3l6,2.3l2.3,6l2.3-6l6-2.3l-6-2.3l-2.3-6L161.8,87.3z M188.7,83.8l-3.7,1.4
		l3.7,1.4l1.4,3.7l1.4-3.7l3.7-1.4l-3.7-1.4l-1.4-3.7L188.7,83.8z M206.1,84.3l-3.7,1.4l3.7,1.4l1.4,3.7l1.4-3.7l3.7-1.4l-3.7-1.4
		l-1.4-3.7L206.1,84.3z M200.9,98.8l-6.1,2.4l6.1,2.3l2.4,6.1l2.4-6.1l6.1-2.3l-6.1-2.4l-2.4-6.1L200.9,98.8z M216.2,108.5l-5.2,2
		l5.2,2l2,5.2l2-5.2l5.2-2l-5.2-2l-2-5.2L216.2,108.5z M206.2,123.8l-3.9,1.5l3.9,1.5l1.5,3.9l1.5-3.9l3.9-1.5l-3.9-1.5l-1.5-3.9
		L206.2,123.8z M190.5,142.6l-3.9,1.5l3.9,1.5l1.5,3.9l1.5-3.9l3.9-1.5l-3.9-1.5l-1.5-3.9L190.5,142.6z M217.8,136.6l-4.6,1.8
		l4.6,1.8l1.8,4.6l1.8-4.6l4.6-1.8l-4.6-1.8l-1.8-4.6L217.8,136.6z M156.5,143.1l-5.1,2l5.1,2l2,5.1l2-5.1l5.1-2l-5.1-2l-2-5.1
		L156.5,143.1z M163.8,186.5l-5.9,2.3l5.9,2.3l2.3,5.9l2.3-5.9l5.9-2.3l-5.9-2.3l-2.3-5.9L163.8,186.5z M196,194.9l-5.9,2.3l5.9,2.3
		l2.3,5.9l2.3-5.9l5.9-2.3l-5.9-2.3l-2.3-5.9L196,194.9z M201.3,152.7l-4.4,1.7l4.4,1.7l1.7,4.4l1.7-4.4l4.4-1.7l-4.4-1.7l-1.7-4.4
		L201.3,152.7z M187.7,182.8l-4.4,1.7l4.4,1.7l1.7,4.4l1.7-4.4l4.4-1.7l-4.4-1.7l-1.7-4.4L187.7,182.8z M150.5,215.4l-4.4,1.7
		l4.4,1.7l1.7,4.4l1.7-4.4l4.4-1.7l-4.4-1.7l-1.7-4.4L150.5,215.4z M169.4,214.4l-3.8,1.5l3.8,1.5l1.5,3.8l1.5-3.8l3.8-1.5l-3.8-1.5
		l-1.5-3.8L169.4,214.4z M178,202.8l-3.8,1.5l3.8,1.5l1.5,3.8l1.5-3.8l3.8-1.5l-3.8-1.5l-1.5-3.8L178,202.8z M191.6,167.1l-3.8,1.5
		l3.8,1.5l1.5,3.8l1.5-3.8l3.8-1.5l-3.8-1.5l-1.5-3.8L191.6,167.1z M213.9,159.3l-3.8,1.5l3.8,1.5l1.5,3.8l1.5-3.8l3.8-1.5l-3.8-1.5
		l-1.5-3.8L213.9,159.3z M210.8,176.2l-3.8,1.5l3.8,1.5l1.5,3.8l1.5-3.8l3.8-1.5l-3.8-1.5l-1.5-3.8L210.8,176.2z M150.9,166.4
		l-3.8,1.5l3.8,1.5l1.5,3.8l1.5-3.8l3.8-1.5l-3.8-1.5l-1.5-3.8L150.9,166.4z M148.1,192.2l-3.8,1.5l3.8,1.5l1.5,3.8l1.5-3.8l3.8-1.5
		l-3.8-1.5l-1.5-3.8L148.1,192.2z M163.6,157.5l-3.3,1.3l3.3,1.3l1.3,3.3l1.3-3.3l3.3-1.3l-3.3-1.3l-1.3-3.3L163.6,157.5z"/>
</g>
<g id="COLORES">
</g>
</svg>
